<?xml version="1.0" encoding="utf-8"?>
<svg version="1.1" xmlns:xlink="http://www.w3.org/1999/xlink" width="29px" height="24px" xmlns="http://www.w3.org/2000/svg">
  <g transform="matrix(1 0 0 1 -796 -225 )">
    <path d="M 11.7997448979592 21.946875  C 11.7874149659864 22.015625  11.7997448979592 22.1  11.8367346938776 22.2  C 11.8367346938776 22.25  11.8428996598639 22.375  11.8552295918367 22.575  C 11.8675595238095 22.775  11.8706420068027 22.940625  11.8644770408163 23.071875  C 11.8583120748299 23.203125  11.8398171768707 23.35  11.8089923469388 23.5125  C 11.7781675170068 23.675  11.7165178571429 23.796875  11.6240433673469 23.878125  C 11.531568877551 23.959375  11.4051870748299 24  11.2448979591837 24  L 5.3265306122449 24  C 3.85926870748299 24  2.6046981292517 23.471875  1.56281887755102 22.415625  C 0.52093962585034 21.359375  0 20.0875  0 18.6  L 0 5.4  C 0 3.9125  0.52093962585034 2.640625  1.56281887755102 1.584375  C 2.6046981292517 0.528124999999997  3.85926870748299 0  5.3265306122449 0  L 11.2448979591837 0  C 11.4051870748299 0  11.5438988095238 0.0593749999999966  11.6610331632653 0.178125000000001  C 11.7781675170068 0.296874999999999  11.8367346938776 0.437499999999999  11.8367346938776 0.600000000000001  C 11.8367346938776 0.649999999999998  11.8428996598639 0.774999999999999  11.8552295918367 0.975000000000001  C 11.8675595238095 1.175  11.8706420068027 1.340625  11.8644770408163 1.471875  C 11.8583120748299 1.603125  11.8398171768707 1.75  11.8089923469388 1.9125  C 11.7781675170068 2.075  11.7165178571429 2.196875  11.6240433673469 2.278125  C 11.531568877551 2.359375  11.4051870748299 2.4  11.2448979591837 2.4  L 5.3265306122449 2.4  C 4.51275510204082 2.4  3.81611394557823 2.69375  3.23660714285714 3.28125  C 2.65710034013605 3.86875  2.36734693877551 4.575  2.36734693877551 5.4  L 2.36734693877551 18.6  C 2.36734693877551 19.425  2.65710034013605 20.13125  3.23660714285714 20.71875  C 3.81611394557823 21.30625  4.51275510204082 21.6  5.3265306122449 21.6  L 10.6530612244898 21.6  L 10.8565051020408 21.6  L 11.0969387755102 21.6  C 11.0969387755102 21.6  11.1678358843537 21.60625  11.3096301020408 21.61875  C 11.4514243197279 21.63125  11.5223214285714 21.65  11.5223214285714 21.675  C 11.5223214285714 21.7  11.5716411564626 21.734375  11.6702806122449 21.778125  C 11.7689200680272 21.821875  11.812074829932 21.878125  11.7997448979592 21.946875  Z M 28.6485969387755 11.15625  C 28.8828656462585 11.39375  29 11.675  29 12  C 29 12.325  28.8828656462585 12.60625  28.6485969387755 12.84375  L 18.5873724489796 23.04375  C 18.3531037414966 23.28125  18.0756802721088 23.4  17.7551020408163 23.4  C 17.4345238095238 23.4  17.1571003401361 23.28125  16.9228316326531 23.04375  C 16.6885629251701 22.80625  16.5714285714286 22.525  16.5714285714286 22.2  L 16.5714285714286 16.8  L 8.28571428571428 16.8  C 7.96513605442177 16.8  7.68771258503401 16.68125  7.45344387755102 16.44375  C 7.21917517006803 16.20625  7.10204081632653 15.925  7.10204081632653 15.6  L 7.10204081632653 8.4  C 7.10204081632653 8.075  7.21917517006803 7.79375  7.45344387755102 7.55625  C 7.68771258503401 7.31875  7.96513605442177 7.2  8.28571428571428 7.2  L 16.5714285714286 7.2  L 16.5714285714286 1.8  C 16.5714285714286 1.475  16.6885629251701 1.19375  16.9228316326531 0.956249999999999  C 17.1571003401361 0.718749999999999  17.4345238095238 0.600000000000001  17.7551020408163 0.600000000000001  C 18.0756802721088 0.600000000000001  18.3531037414966 0.718749999999999  18.5873724489796 0.956249999999999  L 28.6485969387755 11.15625  Z " fill-rule="nonzero" fill="#000000" stroke="none" transform="matrix(1 0 0 1 796 225 )" />
  </g>
</svg>