<?xml version="1.0" encoding="utf-8"?>
<svg version="1.1" xmlns:xlink="http://www.w3.org/1999/xlink" width="13px" height="13px" viewBox="17 14  13 13" xmlns="http://www.w3.org/2000/svg">
  <path d="M 17.5 16  A 1.5 1.5 0 0 1 19 14.5 L 28 14.5  A 1.5 1.5 0 0 1 29.5 16 L 29.5 25  A 1.5 1.5 0 0 1 28 26.5 L 19 26.5  A 1.5 1.5 0 0 1 17.5 25 L 17.5 16  Z " fill-rule="nonzero" fill="#ffffff" stroke="none" />
  <path d="M 17.5 16  A 1.5 1.5 0 0 1 19 14.5 L 28 14.5  A 1.5 1.5 0 0 1 29.5 16 L 29.5 25  A 1.5 1.5 0 0 1 28 26.5 L 19 26.5  A 1.5 1.5 0 0 1 17.5 25 L 17.5 16  Z " stroke-width="1" stroke="#8c8c8c" fill="none" />
  <path d="M 19.7857142857143 20.5  L 22.5714285714286 23.2857142857143  " stroke-width="2.78571428571429" stroke="#8c8c8c" fill="none" />
  <path d="M 22.5714285714286 23.2857142857143  L 27.2142857142857 16.7857142857143  " stroke-width="2.78571428571429" stroke="#8c8c8c" fill="none" />
</svg>