<?xml version="1.0" encoding="utf-8"?>
<svg version="1.1" xmlns:xlink="http://www.w3.org/1999/xlink" width="13px" height="13px" viewBox="17 81  13 13" xmlns="http://www.w3.org/2000/svg">
  <path d="M 17.5 83  A 1.5 1.5 0 0 1 19 81.5 L 28 81.5  A 1.5 1.5 0 0 1 29.5 83 L 29.5 92  A 1.5 1.5 0 0 1 28 93.5 L 19 93.5  A 1.5 1.5 0 0 1 17.5 92 L 17.5 83  Z " fill-rule="nonzero" fill="#ffffff" stroke="none" />
  <path d="M 17.5 83  A 1.5 1.5 0 0 1 19 81.5 L 28 81.5  A 1.5 1.5 0 0 1 29.5 83 L 29.5 92  A 1.5 1.5 0 0 1 28 93.5 L 19 93.5  A 1.5 1.5 0 0 1 17.5 92 L 17.5 83  Z " stroke-width="1" stroke="#8c8c8c" fill="none" />
</svg>