<?xml version="1.0" encoding="utf-8"?>
<svg version="1.1" xmlns:xlink="http://www.w3.org/1999/xlink" width="13px" height="13px" viewBox="17 118  13 13" xmlns="http://www.w3.org/2000/svg">
  <path d="M 17.5 120  A 1.5 1.5 0 0 1 19 118.5 L 28 118.5  A 1.5 1.5 0 0 1 29.5 120 L 29.5 129  A 1.5 1.5 0 0 1 28 130.5 L 19 130.5  A 1.5 1.5 0 0 1 17.5 129 L 17.5 120  Z " fill-rule="nonzero" fill="#ffffff" stroke="none" />
  <path d="M 17.5 120  A 1.5 1.5 0 0 1 19 118.5 L 28 118.5  A 1.5 1.5 0 0 1 29.5 120 L 29.5 129  A 1.5 1.5 0 0 1 28 130.5 L 19 130.5  A 1.5 1.5 0 0 1 17.5 129 L 17.5 120  Z " stroke-width="1" stroke="#8c8c8c" fill="none" />
  <path d="M 19.7857142857143 124.5  L 22.5714285714286 127.285714285714  " stroke-width="2.78571428571429" stroke="#8c8c8c" fill="none" />
  <path d="M 22.5714285714286 127.285714285714  L 27.2142857142857 120.785714285714  " stroke-width="2.78571428571429" stroke="#8c8c8c" fill="none" />
</svg>