<?xml version="1.0" encoding="utf-8"?>
<svg version="1.1" xmlns:xlink="http://www.w3.org/1999/xlink" width="19px" height="14px" xmlns="http://www.w3.org/2000/svg">
  <g transform="matrix(1 0 0 1 -897 -1815 )">
    <path d="M 18.5521885521886 10.4646464646465  C 18.8507295173962 10.6846240179573  19 10.9517396184063  19 11.2659932659933  C 19 11.5802469135802  18.8507295173962 11.8473625140292  18.5521885521886 12.0673400673401  L 16.3771043771044 13.6700336700337  C 16.0785634118967 13.8900112233446  15.716049382716 14  15.2895622895623 14  C 14.8630751964085 14  14.5005611672278 13.8900112233446  14.2020202020202 13.6700336700337  L 9.5 10.2053872053872  L 4.7979797979798 13.6700336700337  C 4.49943883277217 13.8900112233446  4.13692480359147 14  3.71043771043771 14  C 3.28395061728395 14  2.92143658810326 13.8900112233446  2.62289562289562 13.6700336700337  L 0.447811447811448 12.0673400673401  C 0.149270482603816 11.8473625140292  0 11.5802469135802  0 11.2659932659933  C 0 10.9517396184063  0.149270482603816 10.6846240179573  0.447811447811448 10.4646464646465  L 5.14983164983165 7  L 0.447811447811448 3.53535353535353  C 0.149270482603816 3.31537598204265  0 3.04826038159371  0 2.73400673400673  C 0 2.41975308641975  0.149270482603816 2.15263748597082  0.447811447811448 1.93265993265993  L 2.62289562289562 0.32996632996633  C 2.92143658810326 0.109988776655443  3.28395061728395 0  3.71043771043771 0  C 4.13692480359147 0  4.49943883277217 0.109988776655443  4.7979797979798 0.32996632996633  L 9.5 3.7946127946128  L 14.2020202020202 0.32996632996633  C 14.5005611672278 0.109988776655443  14.8630751964085 0  15.2895622895623 0  C 15.716049382716 0  16.0785634118967 0.109988776655443  16.3771043771044 0.32996632996633  L 18.5521885521886 1.93265993265993  C 18.8507295173962 2.15263748597082  19 2.41975308641975  19 2.73400673400673  C 19 3.04826038159371  18.8507295173962 3.31537598204265  18.5521885521886 3.53535353535353  L 13.8501683501683 7  L 18.5521885521886 10.4646464646465  Z " fill-rule="nonzero" fill="#8c8c8c" stroke="none" transform="matrix(1 0 0 1 897 1815 )" />
  </g>
</svg>