<?xml version="1.0" encoding="utf-8"?>
<svg version="1.1" xmlns:xlink="http://www.w3.org/1999/xlink" width="13px" height="12px" xmlns="http://www.w3.org/2000/svg">
  <g transform="matrix(1 0 0 1 -459 -1427 )">
    <path d="M 12.6936026936027 8.96969696969697  C 12.8978675645342 9.15824915824916  13 9.38720538720539  13 9.65656565656566  C 13 9.92592592592593  12.8978675645342 10.1548821548822  12.6936026936027 10.3434343434343  L 11.2053872053872 11.7171717171717  C 11.0011223344557 11.9057239057239  10.7530864197531 12  10.4612794612795 12  C 10.1694725028058 12  9.92143658810325 11.9057239057239  9.71717171717172 11.7171717171717  L 6.5 8.74747474747475  L 3.28282828282828 11.7171717171717  C 3.07856341189675 11.9057239057239  2.83052749719416 12  2.53872053872054 12  C 2.24691358024691 12  1.99887766554433 11.9057239057239  1.79461279461279 11.7171717171717  L 0.306397306397306 10.3434343434343  C 0.102132435465769 10.1548821548822  0 9.92592592592593  0 9.65656565656566  C 0 9.38720538720539  0.102132435465769 9.15824915824916  0.306397306397306 8.96969696969697  L 3.52356902356902 6  L 0.306397306397306 3.03030303030303  C 0.102132435465769 2.84175084175084  0 2.61279461279461  0 2.34343434343434  C 0 2.07407407407407  0.102132435465769 1.84511784511784  0.306397306397306 1.65656565656566  L 1.79461279461279 0.282828282828283  C 1.99887766554433 0.0942760942760938  2.24691358024691 0  2.53872053872054 0  C 2.83052749719416 0  3.07856341189675 0.0942760942760938  3.28282828282828 0.282828282828283  L 6.5 3.25252525252525  L 9.71717171717172 0.282828282828283  C 9.92143658810325 0.0942760942760938  10.1694725028058 0  10.4612794612795 0  C 10.7530864197531 0  11.0011223344557 0.0942760942760938  11.2053872053872 0.282828282828283  L 12.6936026936027 1.65656565656566  C 12.8978675645342 1.84511784511784  13 2.07407407407407  13 2.34343434343434  C 13 2.61279461279461  12.8978675645342 2.84175084175084  12.6936026936027 3.03030303030303  L 9.47643097643098 6  L 12.6936026936027 8.96969696969697  Z " fill-rule="nonzero" fill="#8c8c8c" stroke="none" transform="matrix(1 0 0 1 459 1427 )" />
  </g>
</svg>