<?xml version="1.0" encoding="utf-8"?>
<svg version="1.1" xmlns:xlink="http://www.w3.org/1999/xlink" width="12px" height="11px" xmlns="http://www.w3.org/2000/svg">
  <g transform="matrix(1 0 0 1 -158 -253 )">
    <path d="M 11.7150192554557 4.54686446392448  C 11.9050064184852 4.73971679028995  12 4.96471117104967  12 5.22184760620364  C 12 5.48392897280288  11.9050064184852 5.70645088783996  11.7150192554557 5.8894133513149  L 6.70089858793325 10.7255563047876  C 6.50064184852375 10.9085187682625  6.26700898587933 11  6 11  C 5.72785622593068 11  5.49679075738126 10.9085187682625  5.30680359435173 10.7255563047876  L 0.292682926829268 5.8894133513149  C 0.0975609756097561 5.71139581928523  0 5.48887390424815  0 5.22184760620364  C 0 4.9597662396044  0.0975609756097561 4.73477185884468  0.292682926829268 4.54686446392448  L 0.862644415917843 3.99055967633176  C 1.06290115532734 3.80759721285682  1.29653401797176 3.71611598111935  1.56354300385109 3.71611598111935  C 1.83568677792041 3.71611598111935  2.06675224646983 3.80759721285682  2.25673940949936 3.99055967633176  L 4.5211810012837 6.17127444369521  L 4.5211810012837 0.949426837491571  C 4.5211810012837 0.692290402337604  4.61874197689345 0.469768487300516  4.81386392811297 0.281861092380311  C 5.00898587933248 0.093953697460102  5.2400513478819 0  5.50706033376123 0  L 6.49293966623877 0  C 6.7599486521181 0  6.99101412066752 0.093953697460102  7.18613607188704 0.281861092380311  C 7.38125802310655 0.469768487300516  7.4788189987163 0.692290402337604  7.4788189987163 0.949426837491571  L 7.4788189987163 6.17127444369521  L 9.74326059050064 3.99055967633176  C 9.93324775353017 3.80759721285682  10.1643132220796 3.71611598111935  10.4364569961489 3.71611598111935  C 10.7034659820282 3.71611598111935  10.9370988446727 3.80759721285682  11.1373555840822 3.99055967633176  L 11.7150192554557 4.54686446392448  Z " fill-rule="nonzero" fill="#000000" stroke="none" transform="matrix(1 0 0 1 158 253 )" />
  </g>
</svg>