<?xml version="1.0" encoding="utf-8"?>
<svg version="1.1" xmlns:xlink="http://www.w3.org/1999/xlink" width="13px" height="12px" xmlns="http://www.w3.org/2000/svg">
  <g transform="matrix(1 0 0 1 -555 -110 )">
    <path d="M 12.0025111607143 10.828125  C 12.0484561011905 10.7741477272727  12.0714285714286 10.7102272727273  12.0714285714286 10.6363636363636  L 12.0714285714286 4.09090909090909  C 11.9166666666667 4.29545454545455  11.7498139880952 4.48295454545455  11.5708705357143 4.65340909090909  C 10.2747395833333 5.82386363636363  9.24460565476191 6.78409090909091  8.48046875 7.53409090909091  C 8.23381696428571 7.77840909090909  8.03311011904762 7.96875  7.87834821428571 8.10511363636364  C 7.72358630952381 8.24147727272727  7.51441592261905 8.37926136363636  7.25083705357143 8.51846590909091  C 6.98725818452381 8.65767045454545  6.73939732142857 8.72727272727273  6.50725446428571 8.72727272727273  L 6.5 8.72727272727273  L 6.49274553571429 8.72727272727273  C 6.26060267857143 8.72727272727273  6.01274181547619 8.65767045454545  5.74916294642857 8.51846590909091  C 5.48558407738095 8.37926136363636  5.27641369047619 8.24147727272727  5.12165178571429 8.10511363636364  C 4.96688988095238 7.96875  4.76618303571429 7.77840909090909  4.51953125 7.53409090909091  C 3.7553943452381 6.78409090909091  2.72526041666667 5.82386363636363  1.42912946428571 4.65340909090909  C 1.25018601190476 4.48295454545455  1.08333333333333 4.29545454545455  0.928571428571428 4.09090909090909  L 0.928571428571428 10.6363636363636  C 0.928571428571428 10.7102272727273  0.951543898809524 10.7741477272727  0.997488839285714 10.828125  C 1.0434337797619 10.8821022727273  1.09784226190476 10.9090909090909  1.16071428571429 11  L 11.8392857142857 11  C 11.9021577380952 10.9090909090909  11.9565662202381 10.8821022727273  12.0025111607143 10.828125  Z M 11.7340959821429 2.79971590909091  C 11.958984375 2.38778409090909  12.0714285714286 2.01420454545455  12.0714285714286 1.67897727272727  L 12.0714285714286 1.58522727272727  L 12.0714285714286 1.47017045454546  C 12.0714285714286 1.47017045454546  12.0702194940476 1.43323863636363  12.0678013392857 1.359375  C 12.0653831845238 1.28551136363636  12.0581287202381 1.25  12.0460379464286 1.25284090909091  C 12.033947172619 1.25568181818182  12.0206473214286 1.23011363636364  12.0061383928571 1.17613636363636  C 11.9916294642857 1.12215909090909  11.9698660714286 1.10085227272727  11.9408482142857 1.11221590909091  C 11.9118303571429 1.12357954545455  11.8779761904762 1.11647727272727  11.8392857142857 1  L 1.16071428571429 1  C 1.09784226190476 1.09090909090909  1.0434337797619 1.11789772727273  0.997488839285714 1.171875  C 0.951543898809524 1.22585227272727  0.928571428571428 1.28977272727273  0.928571428571428 1.36363636363636  C 0.928571428571428 2.31818181818182  1.28404017857143 3.125  1.99497767857143 3.78409090909091  C 2.92838541666667 4.64772727272727  3.89806547619048 5.54829545454546  4.90401785714286 6.48579545454546  C 4.93303571428571 6.51420454545454  5.01767113095238 6.59801136363636  5.15792410714286 6.73721590909091  C 5.29817708333333 6.87642045454545  5.40941220238095 6.98295454545454  5.49162946428571 7.05681818181818  C 5.57384672619048 7.13068181818182  5.68145461309524 7.22017045454545  5.814453125 7.32528409090909  C 5.94745163690476 7.43039772727273  6.06956845238095 7.50852272727273  6.18080357142857 7.55965909090909  C 6.29203869047619 7.61079545454546  6.3960193452381 7.63636363636364  6.49274553571429 7.63636363636364  L 6.5 7.63636363636364  L 6.50725446428571 7.63636363636364  C 6.60398065476191 7.63636363636364  6.70796130952381 7.61079545454546  6.81919642857143 7.55965909090909  C 6.93043154761905 7.50852272727273  7.05254836309524 7.43039772727273  7.185546875 7.32528409090909  C 7.31854538690476 7.22017045454545  7.42615327380952 7.13068181818182  7.50837053571429 7.05681818181818  C 7.59058779761905 6.98295454545454  7.70182291666667 6.87642045454545  7.84207589285714 6.73721590909091  C 7.98232886904762 6.59801136363636  8.06696428571429 6.51420454545454  8.09598214285714 6.48579545454546  C 9.10193452380952 5.54829545454546  10.0716145833333 4.64772727272727  11.0050223214286 3.78409090909091  C 11.2661830357143 3.53977272727273  11.5092075892857 3.21164772727273  11.7340959821429 2.79971590909091  Z M 12.6590401785714 0.400568181818181  C 12.8863467261905 0.667613636363635  13 0.988636363636364  13 1.36363636363636  L 13 10.6363636363636  C 13 11.0113636363636  12.8863467261905 11.3323863636364  12.6590401785714 11.5994318181818  C 12.4317336309524 11.8664772727273  12.1584821428571 12  11.8392857142857 12  L 1.16071428571429 12  C 0.841517857142857 12  0.568266369047619 11.8664772727273  0.340959821428571 11.5994318181818  C 0.113653273809524 11.3323863636364  0 11.0113636363636  0 10.6363636363636  L 0 1.36363636363636  C 0 0.988636363636364  0.113653273809524 0.667613636363635  0.340959821428571 0.400568181818181  C 0.568266369047619 0.133522727272726  0.841517857142857 0  1.16071428571429 0  L 11.8392857142857 0  C 12.1584821428571 0  12.4317336309524 0.133522727272726  12.6590401785714 0.400568181818181  Z " fill-rule="nonzero" fill="#000000" stroke="none" fill-opacity="0.996078431372549" transform="matrix(1 0 0 1 555 110 )" />
  </g>
</svg>