<?xml version="1.0" encoding="utf-8"?>
<svg version="1.1" xmlns:xlink="http://www.w3.org/1999/xlink" width="33px" height="26px" xmlns="http://www.w3.org/2000/svg">
  <g transform="matrix(1 0 0 1 -900 -279 )">
    <path d="M 1 8.44822888283379  L 8 8.44822888283379  L 8 26  L 1 26  L 1 8.44822888283379  Z M 6.853515625 0.858991825613079  C 7.56966145833333 1.43165304268846  7.93489583333333 2.15485921889191  7.94921875 3.02861035422343  C 7.96354166666667 3.8905540417802  7.60188802083333 4.61080835603996  6.8642578125 5.18937329700272  C 6.12662760416667 5.76793823796548  5.15625 6.05722070844687  3.953125 6.05722070844687  L 3.91015625 6.05722070844687  C 2.73567708333333 6.05722070844687  1.79036458333333 5.76793823796548  1.07421875 5.18937329700272  C 0.358072916666667 4.61080835603996  0 3.8905540417802  0 3.02861035422343  C 0 2.15485921889191  0.368815104166667 1.43165304268846  1.1064453125 0.858991825613079  C 1.84407552083333 0.286330608537691  2.80729166666667 0  3.99609375 0  C 5.18489583333333 0  6.13736979166667 0.286330608537691  6.853515625 0.858991825613079  Z M 30.765625 10.0510899182561  C 32.2552083333333 11.3912352406903  33 13.3542234332425  33 15.9400544959128  L 33 26  L 25.931640625 26  L 25.931640625 16.6130790190736  C 25.931640625 15.3732970027248  25.6416015625 14.4021344232516  25.0615234375 13.699591280654  C 24.4814453125 12.9970481380563  23.5755208333333 12.6457765667575  22.34375 12.6457765667575  C 21.44140625 12.6457765667575  20.6858723958333 12.8494550408719  20.0771484375 13.2568119891008  C 19.4684244791667 13.6641689373297  19.013671875 14.1689373297003  18.712890625 14.7711171662125  C 18.5553385416667 15.125340599455  18.4765625 15.6035422343324  18.4765625 16.2057220708447  L 18.4765625 26  L 11.408203125 26  C 11.4368489583333 21.2888283378747  11.451171875 17.469118982743  11.451171875 14.5408719346049  C 11.451171875 11.6126248864668  11.4440104166667 9.86512261580381  11.4296875 9.2983651226158  L 11.408203125 8.44822888283379  L 18.4765625 8.44822888283379  L 18.4765625 10.9986376021798  L 18.43359375 10.9986376021798  C 18.7200520833333 10.6207992733878  19.013671875 10.2901907356948  19.314453125 10.0068119891008  C 19.615234375 9.72343324250681  20.0198567708333 9.4164396003633  20.5283203125 9.0858310626703  C 21.0367838541667 8.75522252497729  21.6598307291667 8.49841053587648  22.3974609375 8.31539509536785  C 23.1350911458333 8.13237965485922  23.955078125 8.0408719346049  24.857421875 8.0408719346049  C 27.306640625 8.0408719346049  29.2760416666667 8.71094459582198  30.765625 10.0510899182561  Z " fill-rule="nonzero" fill="#000000" stroke="none" transform="matrix(1 0 0 1 900 279 )" />
  </g>
</svg>