<?xml version="1.0" encoding="utf-8"?>
<svg version="1.1" xmlns:xlink="http://www.w3.org/1999/xlink" width="51px" height="43px" xmlns="http://www.w3.org/2000/svg">
  <g transform="matrix(1 0 0 1 -33 -25 )">
    <path d="M 33.0703125 25.36328125  C 35.3059895833333 26.7443576388889  36.8333333333333 28.5640190972222  37.65234375 30.822265625  C 37.8294270833333 31.2888454861111  37.78515625 31.7414279513889  37.51953125 32.1800130208333  C 37.25390625 32.6185980902778  36.8444010416667 32.9125434027778  36.291015625 33.0618489583333  C 35.7376302083333 33.2111545138889  35.1953125 33.173828125  34.6640625 32.9498697916667  C 34.1328125 32.7259114583333  33.7786458333333 32.3713107638889  33.6015625 31.8860677083333  C 33.0481770833333 30.3930121527778  32.0244140625 29.1845703125  30.5302734375 28.2607421875  C 29.0361328125 27.3369140625  27.359375 26.875  25.5 26.875  C 23.640625 26.875  21.9638671875 27.3369140625  20.4697265625 28.2607421875  C 18.9755859375 29.1845703125  17.9518229166667 30.3930121527778  17.3984375 31.8860677083333  C 17.2213541666667 32.3713107638889  16.8727213541667 32.7259114583333  16.3525390625 32.9498697916667  C 15.8323567708333 33.173828125  15.2955729166667 33.2111545138889  14.7421875 33.0618489583333  C 14.1666666666667 32.9125434027778  13.74609375 32.6185980902778  13.48046875 32.1800130208333  C 13.21484375 31.7414279513889  13.1705729166667 31.2888454861111  13.34765625 30.822265625  C 14.1666666666667 28.5640190972222  15.6940104166667 26.7443576388889  17.9296875 25.36328125  C 20.1653645833333 23.9822048611111  22.6888020833333 23.2916666666667  25.5 23.2916666666667  C 28.3111979166667 23.2916666666667  30.8346354166667 23.9822048611111  33.0703125 25.36328125  Z M 20.0048828125 11.7998046875  C 20.8349609375 12.4996744791667  21.25 13.3441840277778  21.25 14.3333333333333  C 21.25 15.3224826388889  20.8349609375 16.1669921875  20.0048828125 16.8668619791667  C 19.1748046875 17.5667317708333  18.1731770833333 17.9166666666667  17 17.9166666666667  C 15.8268229166667 17.9166666666667  14.8251953125 17.5667317708333  13.9951171875 16.8668619791667  C 13.1650390625 16.1669921875  12.75 15.3224826388889  12.75 14.3333333333333  C 12.75 13.3441840277778  13.1650390625 12.4996744791667  13.9951171875 11.7998046875  C 14.8251953125 11.0999348958333  15.8268229166667 10.75  17 10.75  C 18.1731770833333 10.75  19.1748046875 11.0999348958333  20.0048828125 11.7998046875  Z M 37.0048828125 11.7998046875  C 37.8349609375 12.4996744791667  38.25 13.3441840277778  38.25 14.3333333333333  C 38.25 15.3224826388889  37.8349609375 16.1669921875  37.0048828125 16.8668619791667  C 36.1748046875 17.5667317708333  35.1731770833333 17.9166666666667  34 17.9166666666667  C 32.8268229166667 17.9166666666667  31.8251953125 17.5667317708333  30.9951171875 16.8668619791667  C 30.1650390625 16.1669921875  29.75 15.3224826388889  29.75 14.3333333333333  C 29.75 13.3441840277778  30.1650390625 12.4996744791667  30.9951171875 11.7998046875  C 31.8251953125 11.0999348958333  32.8268229166667 10.75  34 10.75  C 35.1731770833333 10.75  36.1748046875 11.0999348958333  37.0048828125 11.7998046875  Z M 45.056640625 28.4567057291667  C 46.185546875 26.2451171875  46.75 23.9262152777778  46.75 21.5  C 46.75 19.0737847222222  46.185546875 16.7548828125  45.056640625 14.5432942708333  C 43.927734375 12.3317057291667  42.4169921875 10.4280598958333  40.5244140625 8.83235677083334  C 38.6318359375 7.23665364583333  36.3740234375 5.962890625  33.7509765625 5.01106770833333  C 31.1279296875 4.05924479166667  28.3776041666667 3.58333333333333  25.5 3.58333333333333  C 22.6223958333333 3.58333333333333  19.8720703125 4.05924479166667  17.2490234375 5.01106770833333  C 14.6259765625 5.962890625  12.3681640625 7.23665364583333  10.4755859375 8.83235677083334  C 8.5830078125 10.4280598958333  7.072265625 12.3317057291667  5.943359375 14.5432942708333  C 4.814453125 16.7548828125  4.25 19.0737847222222  4.25 21.5  C 4.25 23.9262152777778  4.814453125 26.2451171875  5.943359375 28.4567057291667  C 7.072265625 30.6682942708333  8.5830078125 32.5719401041667  10.4755859375 34.1676432291667  C 12.3681640625 35.7633463541667  14.6259765625 37.037109375  17.2490234375 37.9889322916667  C 19.8720703125 38.9407552083333  22.6223958333333 39.4166666666667  25.5 39.4166666666667  C 28.3776041666667 39.4166666666667  31.1279296875 38.9407552083333  33.7509765625 37.9889322916667  C 36.3740234375 37.037109375  38.6318359375 35.7633463541667  40.5244140625 34.1676432291667  C 42.4169921875 32.5719401041667  43.927734375 30.6682942708333  45.056640625 28.4567057291667  Z M 47.580078125 10.7080078125  C 49.8600260416667 14.0020616319444  51 17.5993923611111  51 21.5  C 51 25.4006076388889  49.8600260416667 28.9979383680556  47.580078125 32.2919921875  C 45.3001302083333 35.5860460069444  42.2067057291667 38.1942274305556  38.2998046875 40.1165364583333  C 34.3929036458333 42.0388454861111  30.1263020833333 43  25.5 43  C 20.8736979166667 43  16.6070963541667 42.0388454861111  12.7001953125 40.1165364583333  C 8.79329427083333 38.1942274305556  5.69986979166667 35.5860460069444  3.419921875 32.2919921875  C 1.13997395833333 28.9979383680556  0 25.4006076388889  0 21.5  C 0 17.5993923611111  1.13997395833333 14.0020616319444  3.419921875 10.7080078125  C 5.69986979166667 7.41395399305556  8.79329427083333 4.80577256944444  12.7001953125 2.88346354166667  C 16.6070963541667 0.961154513888885  20.8736979166667 0  25.5 0  C 30.1263020833333 0  34.3929036458333 0.961154513888885  38.2998046875 2.88346354166667  C 42.2067057291667 4.80577256944444  45.3001302083333 7.41395399305556  47.580078125 10.7080078125  Z " fill-rule="nonzero" fill="#d9001b" stroke="none" transform="matrix(1 0 0 1 33 25 )" />
  </g>
</svg>