<?xml version="1.0" encoding="utf-8"?>
<svg version="1.1" xmlns:xlink="http://www.w3.org/1999/xlink" width="32px" height="35px" xmlns="http://www.w3.org/2000/svg">
  <defs>
    <filter x="549px" y="21px" width="32px" height="35px" filterUnits="userSpaceOnUse" id="filter30">
      <feOffset dx="6" dy="6" in="SourceAlpha" result="shadowOffsetInner" />
      <feGaussianBlur stdDeviation="2.5" in="shadowOffsetInner" result="shadowGaussian" />
      <feComposite in2="shadowGaussian" operator="atop" in="SourceAlpha" result="shadowComposite" />
      <feColorMatrix type="matrix" values="0 0 0 0 0.823529411764706  0 0 0 0 0.87843137254902  0 0 0 0 0.682352941176471  0 0 0 1 0  " in="shadowComposite" />
    </filter>
    <g id="widget31">
      <path d="M 20.5050505050505 17.9393939393939  C 20.8350168350168 18.3164983164983  21 18.7744107744108  21 19.3131313131313  C 21 19.8518518518519  20.8350168350168 20.3097643097643  20.5050505050505 20.6868686868687  L 18.1010101010101 23.4343434343434  C 17.7710437710438 23.8114478114478  17.3703703703704 24  16.8989898989899 24  C 16.4276094276094 24  16.026936026936 23.8114478114478  15.6969696969697 23.4343434343434  L 10.5 17.4949494949495  L 5.3030303030303 23.4343434343434  C 4.97306397306397 23.8114478114478  4.57239057239057 24  4.1010101010101 24  C 3.62962962962963 24  3.22895622895623 23.8114478114478  2.8989898989899 23.4343434343434  L 0.494949494949495 20.6868686868687  C 0.164983164983165 20.3097643097643  0 19.8518518518519  0 19.3131313131313  C 0 18.7744107744108  0.164983164983165 18.3164983164983  0.494949494949495 17.9393939393939  L 5.69191919191919 12  L 0.494949494949495 6.06060606060606  C 0.164983164983165 5.68350168350168  0 5.22558922558923  0 4.68686868686869  C 0 4.14814814814815  0.164983164983165 3.69023569023569  0.494949494949495 3.31313131313131  L 2.8989898989899 0.565656565656566  C 3.22895622895623 0.188552188552188  3.62962962962963 0  4.1010101010101 0  C 4.57239057239057 0  4.97306397306397 0.188552188552188  5.3030303030303 0.565656565656566  L 10.5 6.50505050505051  L 15.6969696969697 0.565656565656566  C 16.026936026936 0.188552188552188  16.4276094276094 0  16.8989898989899 0  C 17.3703703703704 0  17.7710437710438 0.188552188552188  18.1010101010101 0.565656565656566  L 20.5050505050505 3.31313131313131  C 20.8350168350168 3.69023569023569  21 4.14814814814815  21 4.68686868686869  C 21 5.22558922558923  20.8350168350168 5.68350168350168  20.5050505050505 6.06060606060606  L 15.3080808080808 12  L 20.5050505050505 17.9393939393939  Z " fill-rule="nonzero" fill="#8c8c8c" stroke="none" transform="matrix(1 0 0 1 549 21 )" />
    </g>
  </defs>
  <g transform="matrix(1 0 0 1 -549 -21 )">
    <use xlink:href="#widget31" filter="url(#filter30)" />
    <use xlink:href="#widget31" />
  </g>
</svg>