<?xml version="1.0" encoding="utf-8"?>
<svg version="1.1" xmlns:xlink="http://www.w3.org/1999/xlink" width="33px" height="26px" xmlns="http://www.w3.org/2000/svg">
  <g transform="matrix(1 0 0 1 -748 -279 )">
    <path d="M 1.826171875 0  L 31.173828125 0  C 31.6751302083333 0  32.1048177083333 0.141059027777777  32.462890625 0.423177083333332  C 32.8209635416667 0.705295138888887  33 1.04383680555555  33 1.43880208333333  L 33 24.5611979166667  C 33 24.9561631944444  32.8209635416667 25.2947048611111  32.462890625 25.5768229166667  C 32.1048177083333 25.8589409722222  31.6751302083333 26  31.173828125 26  L 22.7734375 26  L 22.7734375 15.9283854166667  L 27.048828125 15.9283854166667  L 27.693359375 12.0013020833333  L 22.7734375 12.0013020833333  L 22.7734375 9.49609375  C 22.7734375 8.86414930555555  22.9417317708333 8.39019097222222  23.2783203125 8.07421875  C 23.6149088541667 7.75824652777778  24.2701822916667 7.60026041666667  25.244140625 7.60026041666667  L 27.865234375 7.58333333333333  L 27.865234375 4.07942708333333  C 26.962890625 3.97786458333333  25.6881510416667 3.92708333333333  24.041015625 3.92708333333333  C 22.0930989583333 3.92708333333333  20.5354817708333 4.37847222222222  19.3681640625 5.28125  C 18.2008463541667 6.18402777777778  17.6171875 7.45920138888889  17.6171875 9.10677083333333  L 17.6171875 12.0013020833333  L 13.3203125 12.0013020833333  L 13.3203125 15.9283854166667  L 17 15.9283854166667  L 17 26  L 1.826171875 26  C 1.32486979166667 26  0.895182291666667 25.8589409722222  0.537109375 25.5768229166667  C 0.179036458333333 25.2947048611111  0 24.9561631944444  0 24.5611979166667  L 0 1.43880208333333  C 0 1.04383680555555  0.179036458333333 0.705295138888887  0.537109375 0.423177083333332  C 0.895182291666667 0.141059027777777  1.32486979166667 0  1.826171875 0  Z " fill-rule="nonzero" fill="#000000" stroke="none" transform="matrix(1 0 0 1 748 279 )" />
  </g>
</svg>