<?xml version="1.0" encoding="utf-8"?>
<svg version="1.1" xmlns:xlink="http://www.w3.org/1999/xlink" width="87px" height="78px" xmlns="http://www.w3.org/2000/svg">
  <g transform="matrix(1 0 0 1 -165 -28 )">
    <path d="M 49.2402561247216 65.5546875  C 49.5470489977728 65.2578125  49.7004454342984 64.890625  49.7004454342984 64.453125  L 49.7004454342984 55.546875  C 49.7004454342984 55.109375  49.5470489977728 54.7421875  49.2402561247216 54.4453125  C 48.9334632516704 54.1484375  48.5701559020045 54  48.1503340757238 54  L 38.8496659242762 54  C 38.4298440979955 54  38.0665367483296 54.1484375  37.7597438752784 54.4453125  C 37.4529510022272 54.7421875  37.2995545657016 55.109375  37.2995545657016 55.546875  L 37.2995545657016 64.453125  C 37.2995545657016 64.890625  37.4529510022272 65.2578125  37.7597438752784 65.5546875  C 38.0665367483296 65.8515625  38.4298440979955 66  38.8496659242762 66  L 48.1503340757238 66  C 48.5701559020045 66  48.9334632516704 65.8515625  49.2402561247216 65.5546875  Z M 49.0949331848552 47.6953125  C 49.4017260579065 47.4921875  49.5712694877506 47.234375  49.6035634743875 46.921875  L 50.4755011135858 25.40625  C 50.4755011135858 25.03125  50.3140311804009 24.734375  49.9910913140312 24.515625  C 49.5712694877506 24.171875  49.1837416481069 24  48.8285077951002 24  L 38.1714922048998 24  C 37.8162583518931 24  37.4287305122494 24.171875  37.0089086859688 24.515625  C 36.6859688195991 24.734375  36.5244988864143 25.0625  36.5244988864143 25.5  L 37.347995545657 46.921875  C 37.347995545657 47.234375  37.5094654788419 47.4921875  37.8324053452116 47.6953125  C 38.1553452115813 47.8984375  38.5428730512249 48  38.9949888641425 48  L 47.956570155902 48  C 48.4086859688196 48  48.788140311804 47.8984375  49.0949331848552 47.6953125  Z M 46.6486636971047 0.843750000000001  C 47.6174832962138 1.40625  48.3763919821826 2.17187499999999  48.9253897550111 3.140625  L 86.1280623608018 69.140625  C 87.2583518930958 71.109375  87.2260579064588 73.078125  86.0311804008909 75.046875  C 85.4821826280624 75.953125  84.7313474387528 76.671875  83.7786748329621 77.203125  C 82.8260022271715 77.734375  81.8006681514477 78  80.7026726057906 78  L 6.29732739420935 78  C 5.19933184855234 78  4.17399777282851 77.734375  3.22132516703786 77.203125  C 2.26865256124722 76.671875  1.51781737193764 75.953125  0.968819599109131 75.046875  C -0.226057906458797 73.078125  -0.258351893095768 71.109375  0.871937639198218 69.140625  L 38.0746102449889 3.140625  C 38.6236080178174 2.17187499999999  39.3825167037862 1.40625  40.3513363028953 0.843750000000001  C 41.3201559020045 0.281250000000003  42.369710467706 0  43.5 0  C 44.630289532294 0  45.6798440979955 0.281250000000003  46.6486636971047 0.843750000000001  Z " fill-rule="nonzero" fill="#d9001b" stroke="none" transform="matrix(1 0 0 1 165 28 )" />
  </g>
</svg>