<?xml version="1.0" encoding="utf-8"?>
<svg version="1.1" xmlns:xlink="http://www.w3.org/1999/xlink" width="59px" height="46px" xmlns="http://www.w3.org/2000/svg">
  <g transform="matrix(1 0 0 1 -477 -173 )">
    <path d="M 33.3928173719376 38.6604567307692  C 33.6008723088344 38.4853766025641  33.7048997772828 38.2688301282051  33.7048997772828 38.0108173076923  L 33.7048997772828 32.7584134615385  C 33.7048997772828 32.5004006410256  33.6008723088344 32.2838541666667  33.3928173719376 32.1087740384615  C 33.1847624350408 31.9336939102564  32.9383815887157 31.8461538461538  32.6536748329621 31.8461538461538  L 26.3463251670379 31.8461538461538  C 26.0616184112843 31.8461538461538  25.8152375649592 31.9336939102564  25.6071826280624 32.1087740384615  C 25.3991276911656 32.2838541666667  25.2951002227171 32.5004006410256  25.2951002227171 32.7584134615385  L 25.2951002227171 38.0108173076923  C 25.2951002227171 38.2688301282051  25.3991276911656 38.4853766025641  25.6071826280624 38.6604567307692  C 25.8152375649592 38.8355368589744  26.0616184112843 38.9230769230769  26.3463251670379 38.9230769230769  L 32.6536748329621 38.9230769230769  C 32.9383815887157 38.9230769230769  33.1847624350408 38.8355368589744  33.3928173719376 38.6604567307692  Z M 33.2942650334076 28.1280048076923  C 33.5023199703044 28.0082131410256  33.6172976985895 27.8561698717949  33.6391982182628 27.671875  L 34.2305122494432 14.9831730769231  C 34.2305122494432 14.7620192307692  34.1210096510765 14.5869391025641  33.902004454343 14.4579326923077  C 33.6172976985895 14.2552083333333  33.3544914625093 14.1538461538462  33.1135857461025 14.1538461538462  L 25.8864142538975 14.1538461538462  C 25.6455085374907 14.1538461538462  25.3827023014105 14.2552083333333  25.097995545657 14.4579326923077  C 24.8789903489235 14.5869391025641  24.7694877505568 14.7804487179487  24.7694877505568 15.0384615384615  L 25.3279510022272 27.671875  C 25.3279510022272 27.8561698717949  25.4374536005939 28.0082131410256  25.6564587973274 28.1280048076923  C 25.8754639940609 28.247796474359  26.1382702301411 28.3076923076923  26.4448775055679 28.3076923076923  L 32.522271714922 28.3076923076923  C 32.8288789903489 28.3076923076923  33.0862100965108 28.247796474359  33.2942650334076 28.1280048076923  Z M 31.6353006681514 0.497596153846155  C 32.2923162583519 0.829326923076923  32.8069784706756 1.28084935897436  33.1792873051225 1.85216346153846  L 58.4086859688196 40.7752403846154  C 59.1752041573868 41.9362980769231  59.1533036377134 43.0973557692308  58.3429844097996 44.2584134615385  C 57.9706755753526 44.7928685897436  57.4614884929473 45.2167467948718  56.8154231625835 45.5300480769231  C 56.1693578322198 45.8433493589744  55.4740163325909 46  54.7293986636971 46  L 4.2706013363029 46  C 3.52598366740906 46  2.83064216778025 45.8433493589744  2.18457683741648 45.5300480769231  C 1.53851150705271 45.2167467948718  1.02932442464736 44.7928685897436  0.657015590200445 44.2584134615385  C -0.153303637713437 43.0973557692308  -0.175204157386785 41.9362980769231  0.591314031180401 40.7752403846154  L 25.8207126948775 1.85216346153846  C 26.1930215293244 1.28084935897436  26.7076837416481 0.829326923076923  27.3646993318486 0.497596153846155  C 28.021714922049 0.165865384615387  28.7334818114328 0  29.5 0  C 30.2665181885672 0  30.978285077951 0.165865384615387  31.6353006681514 0.497596153846155  Z " fill-rule="nonzero" fill="#d9001b" stroke="none" transform="matrix(1 0 0 1 477 173 )" />
  </g>
</svg>