<?xml version="1.0" encoding="utf-8"?>
<svg version="1.1" xmlns:xlink="http://www.w3.org/1999/xlink" width="29px" height="26px" xmlns="http://www.w3.org/2000/svg">
  <g transform="matrix(1 0 0 1 -796 -172 )">
    <path d="M 17.9173177083333 16.0638020833333  C 18.861328125 15.2174479166667  19.3333333333333 14.1961805555556  19.3333333333333 13  C 19.3333333333333 11.8038194444444  18.861328125 10.7825520833333  17.9173177083333 9.93619791666667  C 16.9733072916667 9.08984375  15.8342013888889 8.66666666666667  14.5 8.66666666666667  C 13.1657986111111 8.66666666666667  12.0266927083333 9.08984375  11.0826822916667 9.93619791666667  C 10.138671875 10.7825520833333  9.66666666666667 11.8038194444444  9.66666666666667 13  C 9.66666666666667 14.1961805555556  10.138671875 15.2174479166667  11.0826822916667 16.0638020833333  C 12.0266927083333 16.91015625  13.1657986111111 17.3333333333333  14.5 17.3333333333333  C 15.8342013888889 17.3333333333333  16.9733072916667 16.91015625  17.9173177083333 16.0638020833333  Z M 28.8489583333333 10.7571614583333  C 28.9496527777778 10.8756510416667  29 11.0082465277778  29 11.1549479166667  L 29 14.9127604166667  C 29 15.0481770833333  28.9496527777778 15.1779513888889  28.8489583333333 15.3020833333333  C 28.7482638888889 15.4262152777778  28.6223958333333 15.4995659722222  28.4713541666667 15.5221354166667  L 24.978515625 15.99609375  C 24.7393663194444 16.60546875  24.4939236111111 17.1189236111111  24.2421875 17.5364583333333  C 24.6827256944444 18.1006944444444  25.3561197916667 18.8793402777778  26.2623697916667 19.8723958333333  C 26.3882378472222 20.0078125  26.451171875 20.1488715277778  26.451171875 20.2955729166667  C 26.451171875 20.4422743055556  26.39453125 20.5720486111111  26.28125 20.6848958333333  C 25.94140625 21.1024305555556  25.318359375 21.7118055555556  24.412109375 22.5130208333333  C 23.505859375 23.3142361111111  22.9142795138889 23.71484375  22.6373697916667 23.71484375  C 22.486328125 23.71484375  22.3226996527778 23.6640625  22.146484375 23.5625  L 19.541015625 21.734375  C 18.9871961805556 21.9939236111111  18.4144965277778 22.2083333333333  17.8229166666667 22.3776041666667  C 17.6215277777778 23.9123263888889  17.4390190972222 24.9618055555556  17.275390625 25.5260416666667  C 17.1872829861111 25.8420138888889  16.9607204861111 26  16.595703125 26  L 12.404296875 26  C 12.2280815972222 26  12.0738932291667 25.9520399305556  11.9417317708333 25.8561197916667  C 11.8095703125 25.7601996527778  11.7371961805556 25.6388888888889  11.724609375 25.4921875  L 11.1959635416667 22.3776041666667  C 10.5792100694444 22.1970486111111  10.0128038194444 21.98828125  9.49674479166667 21.7513020833333  L 6.83463541666667 23.5625  C 6.70876736111111 23.6640625  6.55143229166667 23.71484375  6.36263020833333 23.71484375  C 6.18641493055556 23.71484375  6.02907986111111 23.6527777777778  5.890625 23.5286458333333  C 4.3046875 22.2421875  3.26627604166667 21.2942708333333  2.775390625 20.6848958333333  C 2.68728298611111 20.5720486111111  2.64322916666667 20.4422743055556  2.64322916666667 20.2955729166667  C 2.64322916666667 20.16015625  2.69357638888889 20.0303819444444  2.79427083333333 19.90625  C 2.98307291666667 19.6692708333333  3.30403645833333 19.2940538194444  3.75716145833333 18.7805989583333  C 4.21028645833333 18.2671440972222  4.55013020833333 17.8693576388889  4.77669270833333 17.5872395833333  C 4.43684895833333 17.0230034722222  4.17881944444444 16.4644097222222  4.00260416666667 15.9114583333333  L 0.547526041666667 15.4544270833333  C 0.383897569444444 15.4318576388889  0.251736111111111 15.361328125  0.151041666666667 15.2428385416667  C 0.0503472222222222 15.1243489583333  0 14.9917534722222  0 14.8450520833333  L 0 11.0872395833333  C 0 10.9518229166667  0.0503472222222222 10.8220486111111  0.151041666666667 10.6979166666667  C 0.251736111111111 10.5737847222222  0.371310763888889 10.5004340277778  0.509765625 10.4778645833333  L 4.021484375 10.00390625  C 4.19769965277778 9.48480902777778  4.44314236111111 8.96571180555556  4.7578125 8.44661458333333  C 4.25434027777778 7.80338541666667  3.58094618055556 7.02473958333333  2.73763020833333 6.11067708333333  C 2.61176215277778 5.97526041666667  2.548828125 5.83984375  2.548828125 5.70442708333333  C 2.548828125 5.59157986111111  2.60546875 5.46180555555555  2.71875 5.31510416666667  C 3.04600694444444 4.90885416666667  3.66590711805556 4.30230034722222  4.57845052083333 3.49544270833333  C 5.49099392361111 2.68858506944444  6.08572048611111 2.28515625  6.36263020833333 2.28515625  C 6.52625868055556 2.28515625  6.68988715277778 2.34157986111111  6.853515625 2.45442708333333  L 9.458984375 4.265625  C 10.0128038194444 4.00607638888889  10.5855034722222 3.79166666666667  11.1770833333333 3.62239583333333  C 11.3784722222222 2.08767361111111  11.5609809027778 1.03819444444444  11.724609375 0.473958333333332  C 11.8127170138889 0.15798611111111  12.0392795138889 0  12.404296875 0  L 16.595703125 0  C 16.7719184027778 0  16.9261067708333 0.0479600694444422  17.0582682291667 0.143880208333332  C 17.1904296875 0.23980034722222  17.2628038194444 0.36111111111111  17.275390625 0.5078125  L 17.8040364583333 3.62239583333333  C 18.4207899305556 3.80295138888889  18.9871961805556 4.01171875  19.5032552083333 4.24869791666667  L 22.1842447916667 2.4375  C 22.2975260416667 2.3359375  22.4485677083333 2.28515625  22.6373697916667 2.28515625  C 22.8009982638889 2.28515625  22.9583333333333 2.34157986111111  23.109375 2.45442708333333  C 24.7330729166667 3.79730902777778  25.771484375 4.75651041666667  26.224609375 5.33203125  C 26.3127170138889 5.42230902777778  26.3567708333333 5.54644097222222  26.3567708333333 5.70442708333333  C 26.3567708333333 5.83984375  26.3064236111111 5.96961805555555  26.2057291666667 6.09375  C 26.0169270833333 6.33072916666667  25.6959635416667 6.70594618055555  25.2428385416667 7.21940104166667  C 24.7897135416667 7.73285590277778  24.4498697916667 8.13064236111111  24.2233072916667 8.41276041666667  C 24.5505642361111 8.97699652777778  24.80859375 9.52994791666666  24.9973958333333 10.0716145833333  L 28.4524739583333 10.5455729166667  C 28.6161024305556 10.5681423611111  28.7482638888889 10.638671875  28.8489583333333 10.7571614583333  Z " fill-rule="nonzero" fill="#000000" stroke="none" transform="matrix(1 0 0 1 796 172 )" />
  </g>
</svg>