<?xml version="1.0" encoding="utf-8"?>
<svg version="1.1" xmlns:xlink="http://www.w3.org/1999/xlink" width="31px" height="32px" xmlns="http://www.w3.org/2000/svg">
  <g transform="matrix(1 0 0 1 -732 -437 )">
    <path d="M 25.8395432692308 20  C 26.1003605769231 20.125  26.2307692307692 20.3263888888889  26.2307692307692 20.6041666666667  L 26.2307692307692 26  C 26.2307692307692 27.6527777777778  25.7060296474359 29.0659722222222  24.6565504807692 30.2395833333333  C 23.6070713141026 31.4131944444444  22.3433493589744 32  20.8653846153846 32  L 5.36538461538462 32  C 3.88741987179487 32  2.62369791666667 31.4131944444444  1.57421875 30.2395833333333  C 0.524739583333333 29.0659722222222  0 27.6527777777778  0 26  L 0 8.66666666666667  C 0 7.01388888888889  0.524739583333333 5.60069444444444  1.57421875 4.42708333333333  C 2.62369791666667 3.25347222222222  3.88741987179487 2.66666666666667  5.36538461538462 2.66666666666667  L 10.1159855769231 2.66666666666667  C 10.2774439102564 2.66666666666667  10.4171674679487 2.73263888888889  10.53515625 2.86458333333333  C 10.6531450320513 2.99652777777778  10.7121394230769 3.15277777777778  10.7121394230769 3.33333333333333  C 10.7121394230769 3.70833333333333  10.5506810897436 3.93055555555555  10.2277644230769 4  C 9.2714342948718 4.36111111111111  8.44551282051282 4.77777777777778  7.75 5.25  C 7.62580128205128 5.30555555555555  7.52644230769231 5.33333333333333  7.45192307692308 5.33333333333333  L 5.36538461538462 5.33333333333333  C 4.54567307692308 5.33333333333333  3.84395032051282 5.65972222222222  3.26021634615385 6.3125  C 2.67648237179487 6.96527777777778  2.38461538461538 7.75  3 8.66666666666667  L 3 26  C 2.38461538461538 26.9166666666667  2.67648237179487 27.7013888888889  3.26021634615385 28.3541666666667  C 3.84395032051282 29.0069444444444  4.54567307692308 29.3333333333333  5.36538461538462 29  L 20.8653846153846 29  C 21.6850961538462 29.3333333333333  22.3868189102564 29.0069444444444  22.9705528846154 28.3541666666667  C 23.5542868589744 27.7013888888889  23.8461538461538 26.9166666666667  23.8461538461538 26  L 23.8461538461538 21.5416666666667  C 23.8461538461538 21.2777777777778  23.9579326923077 21.0763888888889  24.1814903846154 20.9375  C 24.5292467948718 20.7569444444444  24.8645833333333 20.5  25.1875 20.1666666666667  C 25.386217948718 19.9444444444444  25.6035657051282 19.8888888888889  25.8395432692308 20  Z M 31 9.33333333333333  C 31 9.69444444444444  30.8820112179487 10.0069444444444  30.6460336538462 10.2708333333333  L 23.4921875 18.2708333333333  C 23.2686298076923 18.5347222222222  22.9891826923077 18.6666666666667  22.6538461538462 18.6666666666667  C 22.5048076923077 18.6666666666667  22.3495592948718 18.6319444444444  22.1881009615385 18.5625  C 21.7037259615385 18.3263888888889  21.4615384615385 17.9166666666667  21.4615384615385 17.3333333333333  L 21.4615384615385 13.3333333333333  L 18.4807692307692 13.3333333333333  C 14.4691506410256 13.3333333333333  11.7491987179487 14.2430555555556  10.3209134615385 16.0625  C 8.84294871794872 17.9652777777778  8.38341346153846 21.25  8.94230769230769 25.9166666666667  C 8.97956730769231 26.2361111111111  8.85536858974359 26.4722222222222  8.56971153846154 26.625  C 8.47035256410257 26.6527777777778  8.39583333333333 26.6666666666667  8.34615384615384 26.6666666666667  C 8.1474358974359 26.6666666666667  7.98597756410256 26.5763888888889  7.86177884615385 26.3958333333333  C 7.73758012820513 26.2013888888889  7.60717147435897 25.9861111111111  7.47055288461539 25.75  C 7.3339342948718 25.5138888888889  7.08864182692308 25.0381944444444  6.73467548076923 24.3229166666667  C 6.38070913461539 23.6076388888889  6.07331730769231 22.9166666666667  5.8125 22.25  C 5.55168269230769 21.5833333333333  5.31260016025641 20.7916666666667  5.09525240384615 19.875  C 4.8779046474359 18.9583333333333  4.76923076923077 18.1111111111111  4.76923076923077 17.3333333333333  C 4.76923076923077 16.6527777777778  4.7909655448718 16.0208333333333  4.83443509615385 15.4375  C 4.8779046474359 14.8541666666667  4.96484375 14.2291666666667  5.09525240384615 13.5625  C 5.22566105769231 12.8958333333333  5.39953926282051 12.2847222222222  5.61688701923077 11.7291666666667  C 5.83423477564103 11.1736111111111  6.12610176282051 10.6076388888889  6.49248798076923 10.03125  C 6.85887419871795 9.45486111111111  7.28425480769231 8.94097222222222  7.76862980769231 8.48958333333333  C 8.25300480769231 8.03819444444444  8.83984375 7.61111111111111  9.52914663461539 7.20833333333333  C 10.2184495192308 6.80555555555555  10.9915865384615 6.46875  11.8485576923077 6.19791666666667  C 12.7055288461538 5.92708333333333  13.6960136217949 5.71527777777778  14.8200120192308 5.5625  C 15.9440104166667 5.40972222222222  17.1642628205128 5.33333333333333  18.4807692307692 5.33333333333333  L 21.4615384615385 5.33333333333333  L 21.4615384615385 1.33333333333333  C 21.4615384615385 0.75  21.7037259615385 0.340277777777775  22.1881009615385 0.104166666666668  C 22.3495592948718 0.034722222222225  22.5048076923077 0  22.6538461538462 0  C 22.9767628205128 0  23.2562099358974 0.131944444444446  23.4921875 0.395833333333332  L 30.6460336538462 8.39583333333333  C 30.8820112179487 8.65972222222222  31 8.97222222222222  31 9.33333333333333  Z " fill-rule="nonzero" fill="#000000" stroke="none" transform="matrix(1 0 0 1 732 437 )" />
  </g>
</svg>