<?xml version="1.0" encoding="utf-8"?>
<svg version="1.1" xmlns:xlink="http://www.w3.org/1999/xlink" width="33px" height="26px" xmlns="http://www.w3.org/2000/svg">
  <g transform="matrix(1 0 0 1 -849 -279 )">
    <path d="M 29.1053299492386 4.103125  C 30.4035532994924 3.96770833333333  31.7017766497462 3.62916666666666  33 3.0875  C 32.0647208121827 4.41458333333333  30.9340101522843 5.5453125  29.6078680203046 6.4796875  C 29.6218274111675 6.66927083333333  29.628807106599 6.95364583333333  29.628807106599 7.3328125  C 29.628807106599 9.09322916666666  29.363578680203 10.8502604166667  28.8331218274112 12.60390625  C 28.3026649746193 14.3575520833333  27.4965101522843 16.0401041666667  26.4146573604061 17.6515625  C 25.3328045685279 19.2630208333333  24.0450507614213 20.68828125  22.5513959390863 21.92734375  C 21.0577411167513 23.16640625  19.2569796954315 24.1549479166667  17.1491116751269 24.89296875  C 15.0412436548223 25.6309895833333  12.7868020304569 26  10.3857868020305 26  C 6.60279187817259 26  3.14086294416244 25.0182291666667  0 23.0546875  C 0.488578680203046 23.1088541666667  1.03299492385787 23.1359375  1.63324873096447 23.1359375  C 4.77411167512691 23.1359375  7.57296954314721 22.2015625  10.0298223350254 20.3328125  C 8.56408629441624 20.3057291666667  7.25190355329949 19.8690104166667  6.09327411167513 19.02265625  C 4.93464467005076 18.1763020833333  4.13895939086294 17.0963541666667  3.70621827411168 15.7828125  C 4.16687817258883 15.8505208333333  4.59263959390863 15.884375  4.98350253807107 15.884375  C 5.58375634517767 15.884375  6.17703045685279 15.8098958333333  6.76332487309645 15.6609375  C 5.1998730964467 15.3494791666667  3.90513959390863 14.59453125  2.87912436548223 13.39609375  C 1.85310913705584 12.19765625  1.34010152284264 10.80625  1.34010152284264 9.221875  L 1.34010152284264 9.140625  C 2.28934010152284 9.65520833333333  3.30837563451777 9.9328125  4.39720812182741 9.9734375  C 3.4758883248731 9.37760416666666  2.74302030456853 8.59895833333333  2.19860406091371 7.6375  C 1.65418781725888 6.67604166666666  1.38197969543147 5.63333333333333  1.38197969543147 4.509375  C 1.38197969543147 3.31770833333333  1.68908629441624 2.2140625  2.30329949238579 1.1984375  C 3.99238578680203 3.21614583333333  6.04790609137056 4.83098958333333  8.46986040609137 6.04296875  C 10.8918147208122 7.25494791666667  13.4847715736041 7.92864583333333  16.248730964467 8.0640625  C 16.1370558375635 7.54947916666666  16.0812182741117 7.0484375  16.0812182741117 6.5609375  C 16.0812182741117 4.74635416666666  16.7407994923858 3.19921875  18.059961928934 1.91953125  C 19.3791243654822 0.639843750000001  20.9739847715736 0  22.8445431472081 0  C 24.7988578680203 0  26.4460659898477 0.690625000000001  27.7861675126904 2.071875  C 29.3077411167513 1.7875  30.738578680203 1.259375  32.0786802030457 0.487500000000001  C 31.5621827411168 2.04479166666666  30.5710659898477 3.25  29.1053299492386 4.103125  Z " fill-rule="nonzero" fill="#000000" stroke="none" transform="matrix(1 0 0 1 849 279 )" />
  </g>
</svg>