<?xml version="1.0" encoding="utf-8"?>
<svg version="1.1" xmlns:xlink="http://www.w3.org/1999/xlink" width="33px" height="26px" xmlns="http://www.w3.org/2000/svg">
  <g transform="matrix(1 0 0 1 -951 -279 )">
    <path d="M 17.5205078125 17.72265625  C 18.9742838541667 16.5377604166667  19.701171875 15.0143229166667  19.701171875 13.15234375  C 19.701171875 12.7799479166667  19.658203125 12.4188368055556  19.572265625 12.0690104166667  L 11.794921875 12.0690104166667  L 11.794921875 14.3033854166667  L 16.45703125 14.3033854166667  C 16.28515625 15.1610243055556  15.7516276041667 15.8409288194444  14.8564453125 16.3430989583333  C 13.9612630208333 16.8452690972222  12.9407552083333 17.0963541666667  11.794921875 17.0963541666667  C 10.376953125 17.0963541666667  9.16666666666667 16.6929253472222  8.1640625 15.8860677083333  C 7.16145833333333 15.0792100694444  6.66015625 14.1171875  6.66015625 13  C 6.66015625 11.8828125  7.16145833333333 10.9207899305556  8.1640625 10.1139322916667  C 9.16666666666667 9.30707465277778  10.376953125 8.90364583333333  11.794921875 8.90364583333333  C 13.126953125 8.90364583333333  14.22265625 9.23654513888889  15.08203125 9.90234375  L 17.31640625 8.19270833333333  C 15.76953125 7.06423611111111  13.9290364583333 6.5  11.794921875 6.5  C 9.50325520833333 6.5  7.55533854166667 7.134765625  5.951171875 8.404296875  C 4.34700520833333 9.673828125  3.544921875 11.2057291666667  3.544921875 13  C 3.544921875 14.7942708333333  4.34700520833333 16.326171875  5.951171875 17.595703125  C 7.55533854166667 18.865234375  9.50325520833333 19.5  11.794921875 19.5  C 14.158203125 19.5  16.0667317708333 18.9075520833333  17.5205078125 17.72265625  Z M 27.11328125 15.79296875  L 27.11328125 13.9309895833333  L 29.455078125 13.9309895833333  L 29.455078125 12.0690104166667  L 27.11328125 12.0690104166667  L 27.11328125 10.20703125  L 24.75 10.20703125  L 24.75 12.0690104166667  L 22.38671875 12.0690104166667  L 22.38671875 13.9309895833333  L 24.75 13.9309895833333  L 24.75 15.79296875  L 27.11328125 15.79296875  Z M 30.787109375 6.474609375  C 32.2623697916667 8.46636284722222  33 10.6414930555556  33 13  C 33 15.3585069444444  32.2623697916667 17.5336371527778  30.787109375 19.525390625  C 29.3118489583333 21.5171440972222  27.3102213541667 23.0941840277778  24.7822265625 24.2565104166667  C 22.2542317708333 25.4188368055556  19.4934895833333 26  16.5 26  C 13.5065104166667 26  10.7457682291667 25.4188368055556  8.2177734375 24.2565104166667  C 5.68977864583333 23.0941840277778  3.68815104166667 21.5171440972222  2.212890625 19.525390625  C 0.737630208333333 17.5336371527778  0 15.3585069444444  0 13  C 0 10.6414930555556  0.737630208333333 8.46636284722222  2.212890625 6.474609375  C 3.68815104166667 4.48285590277778  5.68977864583333 2.90581597222222  8.2177734375 1.74348958333333  C 10.7457682291667 0.581163194444442  13.5065104166667 0  16.5 0  C 19.4934895833333 0  22.2542317708333 0.581163194444442  24.7822265625 1.74348958333333  C 27.3102213541667 2.90581597222222  29.3118489583333 4.48285590277778  30.787109375 6.474609375  Z " fill-rule="nonzero" fill="#000000" stroke="none" transform="matrix(1 0 0 1 951 279 )" />
  </g>
</svg>