<?xml version="1.0" encoding="utf-8"?>
<svg version="1.1" xmlns:xlink="http://www.w3.org/1999/xlink" width="14px" height="13px" xmlns="http://www.w3.org/2000/svg">
  <g transform="matrix(1 0 0 1 -603 -601 )">
    <path d="M 13.6675224646983 5.37356709372893  C 13.8891741548994 5.60148347943358  14 5.86738592942234  14 6.17127444369521  C 14 6.48100696785795  13.8891741548994 6.74398741290178  13.6675224646983 6.9602157788267  L 7.81771501925546 12.6756574511126  C 7.58408215661104 12.8918858170375  7.31151048352589 13  7 13  C 6.68249893025246 13  6.41292255027814 12.8918858170375  6.19127086007702 12.6756574511126  L 0.341463414634146 6.9602157788267  C 0.113821138211382 6.74983142279164  0 6.48685097774781  0 6.17127444369521  C 0 5.86154191953248  0.113821138211382 5.59563946954372  0.341463414634146 5.37356709372893  L 1.00641848523748 4.71611598111935  C 1.2400513478819 4.49988761519442  1.51262302096705 4.39177343223196  1.82413350449294 4.39177343223196  C 2.14163457424048 4.39177343223196  2.41121095421481 4.49988761519442  2.63286264441592 4.71611598111935  L 5.27471116816431 7.29332434254889  L 5.27471116816431 1.12204989885367  C 5.27471116816431 0.818161384580805  5.3885323063757 0.555180939536973  5.61617458279846 0.333108563722185  C 5.84381685922122 0.111036187907393  6.11339323919555 0  6.42490372272144 0  L 7.57509627727856 0  C 7.88660676080445 0  8.15618314077878 0.111036187907393  8.38382541720154 0.333108563722185  C 8.61146769362431 0.555180939536973  8.72528883183569 0.818161384580805  8.72528883183569 1.12204989885367  L 8.72528883183569 7.29332434254889  L 11.3671373555841 4.71611598111935  C 11.5887890457852 4.49988761519442  11.8583654257595 4.39177343223196  12.1758664955071 4.39177343223196  C 12.4873769790329 4.39177343223196  12.7599486521181 4.49988761519442  12.9935815147625 4.71611598111935  L 13.6675224646983 5.37356709372893  Z " fill-rule="nonzero" fill="#000000" stroke="none" transform="matrix(1 0 0 1 603 601 )" />
  </g>
</svg>