<?xml version="1.0" encoding="utf-8"?>
<svg version="1.1" xmlns:xlink="http://www.w3.org/1999/xlink" width="46px" height="43px" xmlns="http://www.w3.org/2000/svg">
  <g transform="matrix(1 0 0 1 -57 -64 )">
    <path d="M 80 64  C 92.88 64  103 73.46  103 85.5  C 103 97.54  92.88 107  80 107  C 67.12 107  57 97.54  57 85.5  C 57 73.46  67.12 64  80 64  Z " fill-rule="nonzero" fill="#ffffff" stroke="none" />
    <path d="M 80 64.5  C 92.6 64.5  102.5 73.74  102.5 85.5  C 102.5 97.26  92.6 106.5  80 106.5  C 67.4 106.5  57.5 97.26  57.5 85.5  C 57.5 73.74  67.4 64.5  80 64.5  Z " stroke-width="1" stroke="#797979" fill="none" />
  </g>
</svg>