<?xml version="1.0" encoding="utf-8"?>
<svg version="1.1" xmlns:xlink="http://www.w3.org/1999/xlink" width="62px" height="61px" xmlns="http://www.w3.org/2000/svg">
  <defs>
    <radialGradient cx="31.0000000000003" cy="-7.04325486822199E-13" r="87.0990765447509" gradientTransform="matrix(1 6.22037405573077E-16 -6.22037405573076E-16 0.999999999999999 4.39668087794169E-43 -1.92831595727662E-14 )" gradientUnits="userSpaceOnUse" id="RadialGradient56">
      <stop id="Stop57" stop-color="#02a7f0" offset="0" />
      <stop id="Stop58" stop-color="#a30014" stop-opacity="0.83921568627451" offset="1" />
    </radialGradient>
  </defs>
  <g transform="matrix(1 0 0 1 -241 -27 )">
    <path d="M 48.0338541666667 25.4166666666667  C 48.0338541666667 26.1050347222222  47.7782118055556 26.7007378472222  47.2669270833333 27.2037760416667  L 30.2330729166667 43.962890625  C 29.7217881944444 44.4659288194444  29.1163194444444 44.7174479166667  28.4166666666667 44.7174479166667  C 27.7170138888889 44.7174479166667  27.1115451388889 44.4659288194444  26.6002604166667 43.962890625  L 14.7330729166667 32.287109375  C 14.2217881944444 31.7840711805555  13.9661458333333 31.1883680555555  13.9661458333333 30.5  C 13.9661458333333 29.8116319444444  14.2217881944444 29.2159288194444  14.7330729166667 28.712890625  L 18.8502604166667 24.662109375  C 19.3615451388889 24.1590711805556  19.9670138888889 23.9075520833333  20.6666666666667 23.9075520833333  C 21.3663194444444 23.9075520833333  21.9717881944444 24.1590711805556  22.4830729166667 24.662109375  L 28.4166666666667 30.5  L 39.5169270833333 19.5787760416667  C 40.0282118055556 19.0757378472222  40.6336805555556 18.82421875  41.3333333333333 18.82421875  C 42.0329861111111 18.82421875  42.6384548611111 19.0757378472222  43.1497395833333 19.5787760416667  L 47.2669270833333 23.6295572916667  C 47.7782118055556 24.1325954861111  48.0338541666667 24.7282986111111  48.0338541666667 25.4166666666667  Z M 50.01171875 41.341796875  C 51.9761284722222 38.0323350694444  52.9583333333333 34.4184027777778  52.9583333333333 30.5  C 52.9583333333333 26.5815972222222  51.9761284722222 22.9676649305556  50.01171875 19.658203125  C 48.0473090277778 16.3487413194444  45.3832465277778 13.7276475694444  42.01953125 11.794921875  C 38.6558159722222 9.86219618055556  34.9826388888889 8.89583333333334  31 8.89583333333334  C 27.0173611111111 8.89583333333334  23.3441840277778 9.86219618055556  19.98046875 11.794921875  C 16.6167534722222 13.7276475694444  13.9526909722222 16.3487413194444  11.98828125 19.658203125  C 10.0238715277778 22.9676649305556  9.04166666666667 26.5815972222222  9.04166666666667 30.5  C 9.04166666666667 34.4184027777778  10.0238715277778 38.0323350694444  11.98828125 41.341796875  C 13.9526909722222 44.6512586805556  16.6167534722222 47.2723524305556  19.98046875 49.205078125  C 23.3441840277778 51.1378038194444  27.0173611111111 52.1041666666667  31 52.1041666666667  C 34.9826388888889 52.1041666666667  38.6558159722222 51.1378038194444  42.01953125 49.205078125  C 45.3832465277778 47.2723524305556  48.0473090277778 44.6512586805556  50.01171875 41.341796875  Z M 57.8424479166667 15.1904296875  C 60.6141493055556 19.8633897569444  62 24.9665798611111  62 30.5  C 62 36.0334201388889  60.6141493055556 41.1366102430556  57.8424479166667 45.8095703125  C 55.0707465277778 50.4825303819444  51.3101128472222 54.1825086805556  46.560546875 56.9095052083333  C 41.8109809027778 59.6365017361111  36.6241319444444 61  31 61  C 25.3758680555556 61  20.1890190972222 59.6365017361111  15.439453125 56.9095052083333  C 10.6898871527778 54.1825086805556  6.92925347222222 50.4825303819444  4.15755208333333 45.8095703125  C 1.38585069444444 41.1366102430556  0 36.0334201388889  0 30.5  C 0 24.9665798611111  1.38585069444444 19.8633897569444  4.15755208333333 15.1904296875  C 6.92925347222222 10.5174696180556  10.6898871527778 6.81749131944444  15.439453125 4.09049479166666  C 20.1890190972222 1.36349826388888  25.3758680555556 0  31 0  C 36.6241319444444 0  41.8109809027778 1.36349826388888  46.560546875 4.09049479166666  C 51.3101128472222 6.81749131944444  55.0707465277778 10.5174696180556  57.8424479166667 15.1904296875  Z " fill-rule="nonzero" fill="url(#RadialGradient56)" stroke="none" transform="matrix(1 0 0 1 241 27 )" />
  </g>
</svg>