<?xml version="1.0" encoding="utf-8"?>
<svg version="1.1" xmlns:xlink="http://www.w3.org/1999/xlink" width="33px" height="26px" xmlns="http://www.w3.org/2000/svg">
  <g transform="matrix(1 0 0 1 -798 -279 )">
    <path d="M 20.388671875 16.0638020833333  C 21.462890625 15.2174479166667  22 14.1961805555556  22 13  C 22 11.8038194444444  21.462890625 10.7825520833333  20.388671875 9.93619791666667  C 19.314453125 9.08984375  18.0182291666667 8.66666666666667  16.5 8.66666666666667  C 14.9817708333333 8.66666666666667  13.685546875 9.08984375  12.611328125 9.93619791666667  C 11.537109375 10.7825520833333  11 11.8038194444444  11 13  C 11 14.1961805555556  11.537109375 15.2174479166667  12.611328125 16.0638020833333  C 13.685546875 16.91015625  14.9817708333333 17.3333333333333  16.5 17.3333333333333  C 18.0182291666667 17.3333333333333  19.314453125 16.91015625  20.388671875 16.0638020833333  Z M 22.494140625 8.27734375  C 24.1412760416667 9.57508680555555  24.96484375 11.1493055555556  24.96484375 13  C 24.96484375 14.8506944444444  24.1412760416667 16.4249131944444  22.494140625 17.72265625  C 20.8470052083333 19.0203993055556  18.8489583333333 19.6692708333333  16.5 19.6692708333333  C 14.1510416666667 19.6692708333333  12.1529947916667 19.0203993055556  10.505859375 17.72265625  C 8.85872395833333 16.4249131944444  8.03515625 14.8506944444444  8.03515625 13  C 8.03515625 11.1493055555556  8.85872395833333 9.57508680555555  10.505859375 8.27734375  C 12.1529947916667 6.97960069444444  14.1510416666667 6.33072916666667  16.5 6.33072916666667  C 18.8489583333333 6.33072916666667  20.8470052083333 6.97960069444444  22.494140625 8.27734375  Z M 26.705078125 4.95963541666667  C 27.091796875 5.26432291666667  27.28515625 5.63107638888889  27.28515625 6.05989583333333  C 27.28515625 6.48871527777778  27.091796875 6.85546875  26.705078125 7.16015625  C 26.318359375 7.46484375  25.8528645833333 7.6171875  25.30859375 7.6171875  C 24.7643229166667 7.6171875  24.298828125 7.46484375  23.912109375 7.16015625  C 23.525390625 6.85546875  23.33203125 6.48871527777778  23.33203125 6.05989583333333  C 23.33203125 5.63107638888889  23.525390625 5.26432291666667  23.912109375 4.95963541666667  C 24.298828125 4.65494791666667  24.7643229166667 4.50260416666667  25.30859375 4.50260416666667  C 25.8528645833333 4.50260416666667  26.318359375 4.65494791666667  26.705078125 4.95963541666667  Z M 18.1435546875 2.32747395833333  C 17.1481119791667 2.33311631944444  16.6002604166667 2.3359375  16.5 2.3359375  C 16.3997395833333 2.3359375  15.8518880208333 2.33311631944444  14.8564453125 2.32747395833333  C 13.8610026041667 2.32183159722222  13.10546875 2.32183159722222  12.58984375 2.32747395833333  C 12.07421875 2.33311631944444  11.3831380208333 2.35004340277778  10.5166015625 2.37825520833333  C 9.65006510416667 2.40646701388889  8.91243489583333 2.462890625  8.3037109375 2.54752604166667  C 7.69498697916667 2.63216145833333  7.18294270833333 2.73654513888889  6.767578125 2.86067708333333  C 6.05143229166667 3.08637152777778  5.42122395833333 3.41362847222222  4.876953125 3.84244791666667  C 4.33268229166667 4.27126736111111  3.91731770833333 4.76779513888889  3.630859375 5.33203125  C 3.47330729166667 5.65928819444444  3.3408203125 6.06271701388889  3.2333984375 6.54231770833333  C 3.1259765625 7.02191840277778  3.05436197916667 7.60308159722222  3.0185546875 8.28580729166667  C 2.98274739583333 8.96853298611111  2.96126302083333 9.51302083333333  2.9541015625 9.91927083333333  C 2.94694010416667 10.3255208333333  2.94694010416667 10.9207899305556  2.9541015625 11.705078125  C 2.96126302083333 12.4893663194444  2.96484375 12.9210069444444  2.96484375 13  C 2.96484375 13.0789930555556  2.96126302083333 13.5106336805556  2.9541015625 14.294921875  C 2.94694010416667 15.0792100694444  2.94694010416667 15.6744791666667  2.9541015625 16.0807291666667  C 2.96126302083333 16.4869791666667  2.98274739583333 17.0314670138889  3.0185546875 17.7141927083333  C 3.05436197916667 18.3969184027778  3.1259765625 18.9780815972222  3.2333984375 19.4576822916667  C 3.3408203125 19.9372829861111  3.47330729166667 20.3407118055556  3.630859375 20.66796875  C 3.91731770833333 21.2322048611111  4.33268229166667 21.7287326388889  4.876953125 22.1575520833333  C 5.42122395833333 22.5863715277778  6.05143229166667 22.9136284722222  6.767578125 23.1393229166667  C 7.18294270833333 23.2634548611111  7.69498697916667 23.3678385416667  8.3037109375 23.4524739583333  C 8.91243489583333 23.537109375  9.65006510416667 23.5935329861111  10.5166015625 23.6217447916667  C 11.3831380208333 23.6499565972222  12.07421875 23.6668836805556  12.58984375 23.6725260416667  C 13.10546875 23.6781684027778  13.8610026041667 23.6781684027778  14.8564453125 23.6725260416667  C 15.8518880208333 23.6668836805556  16.3997395833333 23.6640625  16.5 23.6640625  C 16.6002604166667 23.6640625  17.1481119791667 23.6668836805556  18.1435546875 23.6725260416667  C 19.1389973958333 23.6781684027778  19.89453125 23.6781684027778  20.41015625 23.6725260416667  C 20.92578125 23.6668836805556  21.6168619791667 23.6499565972222  22.4833984375 23.6217447916667  C 23.3499348958333 23.5935329861111  24.0875651041667 23.537109375  24.6962890625 23.4524739583333  C 25.3050130208333 23.3678385416667  25.8170572916667 23.2634548611111  26.232421875 23.1393229166667  C 26.9485677083333 22.9136284722222  27.5787760416667 22.5863715277778  28.123046875 22.1575520833333  C 28.6673177083333 21.7287326388889  29.0826822916667 21.2322048611111  29.369140625 20.66796875  C 29.5266927083333 20.3407118055556  29.6591796875 19.9372829861111  29.7666015625 19.4576822916667  C 29.8740234375 18.9780815972222  29.9456380208333 18.3969184027778  29.9814453125 17.7141927083333  C 30.0172526041667 17.0314670138889  30.0387369791667 16.4869791666667  30.0458984375 16.0807291666667  C 30.0530598958333 15.6744791666667  30.0530598958333 15.0792100694444  30.0458984375 14.294921875  C 30.0387369791667 13.5106336805556  30.03515625 13.0789930555556  30.03515625 13  C 30.03515625 12.9210069444444  30.0387369791667 12.4893663194444  30.0458984375 11.705078125  C 30.0530598958333 10.9207899305556  30.0530598958333 10.3255208333333  30.0458984375 9.91927083333333  C 30.0387369791667 9.51302083333333  30.0172526041667 8.96853298611111  29.9814453125 8.28580729166667  C 29.9456380208333 7.60308159722222  29.8740234375 7.02191840277778  29.7666015625 6.54231770833333  C 29.6591796875 6.06271701388889  29.5266927083333 5.65928819444444  29.369140625 5.33203125  C 29.0826822916667 4.76779513888889  28.6673177083333 4.27126736111111  28.123046875 3.84244791666667  C 27.5787760416667 3.41362847222222  26.9485677083333 3.08637152777778  26.232421875 2.86067708333333  C 25.8170572916667 2.73654513888889  25.3050130208333 2.63216145833333  24.6962890625 2.54752604166667  C 24.0875651041667 2.462890625  23.3499348958333 2.40646701388889  22.4833984375 2.37825520833333  C 21.6168619791667 2.35004340277778  20.92578125 2.33311631944444  20.41015625 2.32747395833333  C 19.89453125 2.32183159722222  19.1389973958333 2.32183159722222  18.1435546875 2.32747395833333  Z M 32.892578125 7.63411458333333  C 32.9641927083333 8.62717013888889  33 10.4157986111111  33 13  C 33 15.5842013888889  32.9641927083333 17.3728298611111  32.892578125 18.3658854166667  C 32.7493489583333 20.7131076388889  31.861328125 22.5299479166667  30.228515625 23.81640625  C 28.595703125 25.1028645833333  26.2897135416667 25.8025173611111  23.310546875 25.9153645833333  C 22.0501302083333 25.9717881944444  19.7799479166667 26  16.5 26  C 13.2200520833333 26  10.9498697916667 25.9717881944444  9.689453125 25.9153645833333  C 6.71028645833333 25.8025173611111  4.404296875 25.1028645833333  2.771484375 23.81640625  C 1.138671875 22.5299479166667  0.250651041666667 20.7131076388889  0.107421875 18.3658854166667  C 0.0358072916666667 17.3728298611111  0 15.5842013888889  0 13  C 0 10.4157986111111  0.0358072916666667 8.62717013888889  0.107421875 7.63411458333333  C 0.250651041666667 5.28689236111111  1.138671875 3.47005208333333  2.771484375 2.18359375  C 4.404296875 0.897135416666668  6.71028645833333 0.197482638888887  9.689453125 0.0846354166666676  C 10.9498697916667 0.028211805555552  13.2200520833333 0  16.5 0  C 19.7799479166667 0  22.0501302083333 0.028211805555552  23.310546875 0.0846354166666676  C 26.2897135416667 0.197482638888887  28.595703125 0.897135416666668  30.228515625 2.18359375  C 31.861328125 3.47005208333333  32.7493489583333 5.28689236111111  32.892578125 7.63411458333333  Z " fill-rule="nonzero" fill="#000000" stroke="none" transform="matrix(1 0 0 1 798 279 )" />
  </g>
</svg>