<?xml version="1.0" encoding="utf-8"?>
<svg version="1.1" xmlns:xlink="http://www.w3.org/1999/xlink" width="60px" height="48px" xmlns="http://www.w3.org/2000/svg">
  <g transform="matrix(1 0 0 1 -26 -25 )">
    <path d="M 38.90625 28.3125  C 41.5364583333333 29.8541666666667  43.3333333333333 31.8854166666667  44.296875 34.40625  C 44.5052083333333 34.9270833333333  44.453125 35.4322916666667  44.140625 35.921875  C 43.828125 36.4114583333333  43.3463541666667 36.7395833333333  42.6953125 36.90625  C 42.0442708333333 37.0729166666667  41.40625 37.03125  40.78125 36.78125  C 40.15625 36.53125  39.7395833333333 36.1354166666667  39.53125 35.59375  C 38.8802083333333 33.9270833333333  37.67578125 32.578125  35.91796875 31.546875  C 34.16015625 30.515625  32.1875 30  30 30  C 27.8125 30  25.83984375 30.515625  24.08203125 31.546875  C 22.32421875 32.578125  21.1197916666667 33.9270833333333  20.46875 35.59375  C 20.2604166666667 36.1354166666667  19.8502604166667 36.53125  19.23828125 36.78125  C 18.6263020833333 37.03125  17.9947916666667 37.0729166666667  17.34375 36.90625  C 16.6666666666667 36.7395833333333  16.171875 36.4114583333333  15.859375 35.921875  C 15.546875 35.4322916666667  15.4947916666667 34.9270833333333  15.703125 34.40625  C 16.6666666666667 31.8854166666667  18.4635416666667 29.8541666666667  21.09375 28.3125  C 23.7239583333333 26.7708333333333  26.6927083333333 26  30 26  C 33.3072916666667 26  36.2760416666667 26.7708333333333  38.90625 28.3125  Z M 23.53515625 13.171875  C 24.51171875 13.953125  25 14.8958333333333  25 16  C 25 17.1041666666667  24.51171875 18.046875  23.53515625 18.828125  C 22.55859375 19.609375  21.3802083333333 20  20 20  C 18.6197916666667 20  17.44140625 19.609375  16.46484375 18.828125  C 15.48828125 18.046875  15 17.1041666666667  15 16  C 15 14.8958333333333  15.48828125 13.953125  16.46484375 13.171875  C 17.44140625 12.390625  18.6197916666667 12  20 12  C 21.3802083333333 12  22.55859375 12.390625  23.53515625 13.171875  Z M 43.53515625 13.171875  C 44.51171875 13.953125  45 14.8958333333333  45 16  C 45 17.1041666666667  44.51171875 18.046875  43.53515625 18.828125  C 42.55859375 19.609375  41.3802083333333 20  40 20  C 38.6197916666667 20  37.44140625 19.609375  36.46484375 18.828125  C 35.48828125 18.046875  35 17.1041666666667  35 16  C 35 14.8958333333333  35.48828125 13.953125  36.46484375 13.171875  C 37.44140625 12.390625  38.6197916666667 12  40 12  C 41.3802083333333 12  42.55859375 12.390625  43.53515625 13.171875  Z M 53.0078125 31.765625  C 54.3359375 29.296875  55 26.7083333333333  55 24  C 55 21.2916666666667  54.3359375 18.703125  53.0078125 16.234375  C 51.6796875 13.765625  49.90234375 11.640625  47.67578125 9.859375  C 45.44921875 8.078125  42.79296875 6.65625  39.70703125 5.59375  C 36.62109375 4.53125  33.3854166666667 4  30 4  C 26.6145833333333 4  23.37890625 4.53125  20.29296875 5.59375  C 17.20703125 6.65625  14.55078125 8.078125  12.32421875 9.859375  C 10.09765625 11.640625  8.3203125 13.765625  6.9921875 16.234375  C 5.6640625 18.703125  5 21.2916666666667  5 24  C 5 26.7083333333333  5.6640625 29.296875  6.9921875 31.765625  C 8.3203125 34.234375  10.09765625 36.359375  12.32421875 38.140625  C 14.55078125 39.921875  17.20703125 41.34375  20.29296875 42.40625  C 23.37890625 43.46875  26.6145833333333 44  30 44  C 33.3854166666667 44  36.62109375 43.46875  39.70703125 42.40625  C 42.79296875 41.34375  45.44921875 39.921875  47.67578125 38.140625  C 49.90234375 36.359375  51.6796875 34.234375  53.0078125 31.765625  Z M 55.9765625 11.953125  C 58.6588541666667 15.6302083333333  60 19.6458333333333  60 24  C 60 28.3541666666667  58.6588541666667 32.3697916666667  55.9765625 36.046875  C 53.2942708333333 39.7239583333333  49.6549479166667 42.6354166666667  45.05859375 44.78125  C 40.4622395833333 46.9270833333333  35.4427083333333 48  30 48  C 24.5572916666667 48  19.5377604166667 46.9270833333333  14.94140625 44.78125  C 10.3450520833333 42.6354166666667  6.70572916666667 39.7239583333333  4.0234375 36.046875  C 1.34114583333333 32.3697916666667  0 28.3541666666667  0 24  C 0 19.6458333333333  1.34114583333333 15.6302083333333  4.0234375 11.953125  C 6.70572916666667 8.27604166666667  10.3450520833333 5.36458333333333  14.94140625 3.21875  C 19.5377604166667 1.07291666666666  24.5572916666667 0  30 0  C 35.4427083333333 0  40.4622395833333 1.07291666666666  45.05859375 3.21875  C 49.6549479166667 5.36458333333333  53.2942708333333 8.27604166666667  55.9765625 11.953125  Z " fill-rule="nonzero" fill="#d9001b" stroke="none" transform="matrix(1 0 0 1 26 25 )" />
  </g>
</svg>