<?xml version="1.0" encoding="utf-8"?>
<svg version="1.1" xmlns:xlink="http://www.w3.org/1999/xlink" width="105px" height="103px" xmlns="http://www.w3.org/2000/svg">
  <g transform="matrix(1 0 0 1 -60 -63 )">
    <path d="M 59.4278953229399 86.5658052884615  C 59.7981625835189 86.1737780448718  59.9832962138085 85.6889022435897  60 85.1111778846154  L 60 73.3503605769231  C 59.9832962138085 72.7726362179487  59.7981625835189 72.2877604166667  59.4278953229399 71.8957331730769  C 59.0576280623608 71.5037059294872  58.619153674833 71.3076923076923  58.1124721603564 71  L 46.8875278396437 71  C 46.380846325167 71.3076923076923  45.9423719376392 71.5037059294872  45.5721046770601 71.8957331730769  C 45.2018374164811 72.2877604166667  45.0167037861915 72.7726362179487  45 73.3503605769231  L 45 85.1111778846154  C 45.0167037861915 85.6889022435897  45.2018374164811 86.1737780448718  45.5721046770601 86.5658052884615  C 45.9423719376392 86.9578325320513  46.380846325167 87.1538461538461  46.8875278396437 87  L 58.1124721603564 87  C 58.619153674833 87.1538461538461  59.0576280623608 86.9578325320513  59.4278953229399 86.5658052884615  Z M 59.2525055679287 62.9822716346154  C 59.6227728285078 62.7140424679487  59.8273942093541 62.3735977564103  59.8663697104677 61.9609375  L 60.9187082405345 33.5492788461538  C 60.9187082405345 33.0540865384615  60.7238307349666 32.6620592948718  60.3340757238307 32.3731971153846  C 59.8273942093541 31.9192708333333  59.3596881959911 31.6923076923077  58.9309576837417 32  L 46.0690423162583 32  C 45.6403118040089 31.6923076923077  45.1726057906459 31.9192708333333  44.6659242761693 32.3731971153846  C 44.2761692650334 32.6620592948718  44.0812917594655 33.0953525641025  44.0812917594655 33.6730769230769  L 45.0751670378619 61.9609375  C 45.0751670378619 62.3735977564103  45.2700445434298 62.7140424679487  45.6597995545657 62.9822716346154  C 46.0495545657016 63.250500801282  46.5172605790646 63.3846153846154  47.0629175946548 63  L 57.8786191536748 63  C 58.424276169265 63.3846153846154  58.8822383073497 63.250500801282  59.2525055679287 62.9822716346154  Z M 56.3001113585746 1.11418269230769  C 57.4693763919822 1.85697115384615  58.3853006681515 2.86798878205127  59.0478841870824 4.14723557692308  L 103.947661469933 91.3010817307692  C 105.311804008909 93.9008413461539  105.272828507795 96.5006009615385  103.830734966592 99.1003605769231  C 103.168151447661 100.297075320513  102.261971046771 101.246193910256  101.11219376392 101.947716346154  C 99.9624164810691 102.649238782051  98.7249443207127 103  97.3997772828508 103  L 7.60022271714922 103  C 6.27505567928731 103  5.03758351893096 102.649238782051  3.88780623608018 101.947716346154  C 2.7380289532294 101.246193910256  1.83184855233853 100.297075320513  1.16926503340757 99.1003605769231  C -0.2728285077951 96.5006009615385  -0.311804008908686 93.9008413461539  1.05233853006682 91.3010817307692  L 45.9521158129176 4.14723557692308  C 46.6146993318486 2.86798878205127  47.5306236080178 1.85697115384615  48.6998886414254 1.11418269230769  C 49.869153674833 0.371394230769235  51.1358574610245 0  52.5 0  C 53.8641425389755 0  55.130846325167 0.371394230769235  56.3001113585746 1.11418269230769  Z " fill-rule="nonzero" fill="#d9001b" stroke="none" transform="matrix(1 0 0 1 60 63 )" />
  </g>
</svg>