<?xml version="1.0" encoding="utf-8"?>
<svg version="1.1" xmlns:xlink="http://www.w3.org/1999/xlink" width="66px" height="61px" xmlns="http://www.w3.org/2000/svg">
  <g transform="matrix(1 0 0 1 -36 -24 )">
    <path d="M 42.796875 35.98046875  C 45.6901041666667 37.9396701388889  47.6666666666667 40.5210503472222  48.7265625 43.724609375  C 48.9557291666667 44.3865017361111  48.8984375 45.0285373263889  48.5546875 45.6507161458333  C 48.2109375 46.2728949652778  47.6809895833333 46.6898871527778  46.96484375 46.9016927083333  C 46.2486979166667 47.1134982638889  45.546875 47.060546875  44.859375 46.7428385416667  C 44.171875 46.4251302083333  43.7135416666667 45.9220920138889  43.484375 45.2337239583333  C 42.7682291666667 43.1156684027778  41.443359375 41.4013671875  39.509765625 40.0908203125  C 37.576171875 38.7802734375  35.40625 38.125  33 38.125  C 30.59375 38.125  28.423828125 38.7802734375  26.490234375 40.0908203125  C 24.556640625 41.4013671875  23.2317708333333 43.1156684027778  22.515625 45.2337239583333  C 22.2864583333333 45.9220920138889  21.8352864583333 46.4251302083333  21.162109375 46.7428385416667  C 20.4889322916667 47.060546875  19.7942708333333 47.1134982638889  19.078125 46.9016927083333  C 18.3333333333333 46.6898871527778  17.7890625 46.2728949652778  17.4453125 45.6507161458333  C 17.1015625 45.0285373263889  17.0442708333333 44.3865017361111  17.2734375 43.724609375  C 18.3333333333333 40.5210503472222  20.3098958333333 37.9396701388889  23.203125 35.98046875  C 26.0963541666667 34.0212673611111  29.3619791666667 33.0416666666667  33 33.0416666666667  C 36.6380208333333 33.0416666666667  39.9036458333333 34.0212673611111  42.796875 35.98046875  Z M 25.888671875 16.7392578125  C 26.962890625 17.7320963541667  27.5 18.9301215277778  27.5 20.3333333333333  C 27.5 21.7365451388889  26.962890625 22.9345703125  25.888671875 23.9274088541667  C 24.814453125 24.9202473958333  23.5182291666667 25.4166666666667  22 25.4166666666667  C 20.4817708333333 25.4166666666667  19.185546875 24.9202473958333  18.111328125 23.9274088541667  C 17.037109375 22.9345703125  16.5 21.7365451388889  16.5 20.3333333333333  C 16.5 18.9301215277778  17.037109375 17.7320963541667  18.111328125 16.7392578125  C 19.185546875 15.7464192708333  20.4817708333333 15.25  22 15.25  C 23.5182291666667 15.25  24.814453125 15.7464192708333  25.888671875 16.7392578125  Z M 47.888671875 16.7392578125  C 48.962890625 17.7320963541667  49.5 18.9301215277778  49.5 20.3333333333333  C 49.5 21.7365451388889  48.962890625 22.9345703125  47.888671875 23.9274088541667  C 46.814453125 24.9202473958333  45.5182291666667 25.4166666666667  44 25.4166666666667  C 42.4817708333333 25.4166666666667  41.185546875 24.9202473958333  40.111328125 23.9274088541667  C 39.037109375 22.9345703125  38.5 21.7365451388889  38.5 20.3333333333333  C 38.5 18.9301215277778  39.037109375 17.7320963541667  40.111328125 16.7392578125  C 41.185546875 15.7464192708333  42.4817708333333 15.25  44 15.25  C 45.5182291666667 15.25  46.814453125 15.7464192708333  47.888671875 16.7392578125  Z M 58.30859375 40.3688151041667  C 59.76953125 37.2314453125  60.5 33.9418402777778  60.5 30.5  C 60.5 27.0581597222222  59.76953125 23.7685546875  58.30859375 20.6311848958333  C 56.84765625 17.4938151041667  54.892578125 14.7932942708333  52.443359375 12.5296223958333  C 49.994140625 10.2659505208333  47.072265625 8.458984375  43.677734375 7.10872395833334  C 40.283203125 5.75846354166666  36.7239583333333 5.08333333333334  33 5.08333333333334  C 29.2760416666667 5.08333333333334  25.716796875 5.75846354166666  22.322265625 7.10872395833334  C 18.927734375 8.458984375  16.005859375 10.2659505208333  13.556640625 12.5296223958333  C 11.107421875 14.7932942708333  9.15234375 17.4938151041667  7.69140625 20.6311848958333  C 6.23046875 23.7685546875  5.5 27.0581597222222  5.5 30.5  C 5.5 33.9418402777778  6.23046875 37.2314453125  7.69140625 40.3688151041667  C 9.15234375 43.5061848958333  11.107421875 46.2067057291667  13.556640625 48.4703776041667  C 16.005859375 50.7340494791667  18.927734375 52.541015625  22.322265625 53.8912760416667  C 25.716796875 55.2415364583333  29.2760416666667 55.9166666666667  33 55.9166666666667  C 36.7239583333333 55.9166666666667  40.283203125 55.2415364583333  43.677734375 53.8912760416667  C 47.072265625 52.541015625  49.994140625 50.7340494791667  52.443359375 48.4703776041667  C 54.892578125 46.2067057291667  56.84765625 43.5061848958333  58.30859375 40.3688151041667  Z M 61.57421875 15.1904296875  C 64.5247395833333 19.8633897569444  66 24.9665798611111  66 30.5  C 66 36.0334201388889  64.5247395833333 41.1366102430556  61.57421875 45.8095703125  C 58.6236979166667 50.4825303819444  54.6204427083333 54.1825086805556  49.564453125 56.9095052083333  C 44.5084635416667 59.6365017361111  38.9869791666667 61  33 61  C 27.0130208333333 61  21.4915364583333 59.6365017361111  16.435546875 56.9095052083333  C 11.3795572916667 54.1825086805556  7.37630208333333 50.4825303819444  4.42578125 45.8095703125  C 1.47526041666667 41.1366102430556  0 36.0334201388889  0 30.5  C 0 24.9665798611111  1.47526041666667 19.8633897569444  4.42578125 15.1904296875  C 7.37630208333333 10.5174696180556  11.3795572916667 6.81749131944444  16.435546875 4.09049479166666  C 21.4915364583333 1.36349826388888  27.0130208333333 0  33 0  C 38.9869791666667 0  44.5084635416667 1.36349826388888  49.564453125 4.09049479166666  C 54.6204427083333 6.81749131944444  58.6236979166667 10.5174696180556  61.57421875 15.1904296875  Z " fill-rule="nonzero" fill="#d9001b" stroke="none" transform="matrix(1 0 0 1 36 24 )" />
  </g>
</svg>