<?xml version="1.0" encoding="utf-8"?>
<svg version="1.1" xmlns:xlink="http://www.w3.org/1999/xlink" width="98px" height="91px" xmlns="http://www.w3.org/2000/svg">
  <g transform="matrix(1 0 0 1 -82 -57 )">
    <path d="M 55.4660356347439 76.48046875  C 55.8116184112843 76.1341145833333  55.9844097995546 75.7057291666667  56 75.1953125  L 56 64.8046875  C 55.9844097995546 64.2942708333333  55.8116184112843 63.8658854166667  55.4660356347439 63.51953125  C 55.1204528582034 63.1731770833333  54.7112100965108 63  54.2383073496659 63  L 43.7616926503341 63  C 43.2887899034892 63  42.8795471417966 63.1731770833333  42.5339643652561 63.51953125  C 42.1883815887157 63.8658854166667  42.0155902004454 64.2942708333333  42 64.8046875  L 42 75.1953125  C 42.0155902004454 75.7057291666667  42.1883815887157 76.1341145833333  42.5339643652561 76.48046875  C 42.8795471417966 76.8268229166667  43.2887899034892 77  43.7616926503341 77  L 54.2383073496659 77  C 54.7112100965108 77  55.1204528582034 76.8268229166667  55.4660356347439 76.48046875  Z M 55.3023385300668 55.64453125  C 55.6479213066073 55.4075520833333  55.8389012620639 55.1067708333333  55.8752783964365 54.7421875  L 56.8574610244989 29.640625  C 56.8574610244989 29.203125  56.6755753526355 28.8567708333333  56.3118040089087 28.6015625  C 55.8389012620639 28.2005208333333  55.4023756495917 28  55.0022271714922 28  L 42.9977728285078 28  C 42.5976243504083 28  42.1610987379362 28.2005208333333  41.6881959910913 28.6015625  C 41.3244246473645 28.8567708333333  41.1425389755011 29.2395833333333  41.1425389755011 29.75  L 42.0701559020045 54.7421875  C 42.0701559020045 55.1067708333333  42.2520415738679 55.4075520833333  42.6158129175947 55.64453125  C 42.9795842613215 55.8815104166667  43.4161098737936 56  43.9253897550111 56  L 54.0200445434298 56  C 54.5293244246474 56  54.9567557535264 55.8815104166667  55.3023385300668 55.64453125  Z M 52.5467706013363 0.984375000000002  C 53.6380846325167 1.640625  54.4929472902747 2.53385416666666  55.1113585746102 3.6640625  L 97.0178173719376 80.6640625  C 98.2910170749815 82.9609375  98.2546399406088 85.2578125  96.9086859688196 87.5546875  C 96.290274684484 88.6119791666667  95.4445063103192 89.4505208333333  94.3713808463252 90.0703125  C 93.2982553823311 90.6901041666667  92.1432813659985 91  90.9064587973274 91  L 7.09354120267261 91  C 5.85671863400149 91  4.70174461766889 90.6901041666667  3.62861915367483 90.0703125  C 2.55549368968077 89.4505208333333  1.70972531551596 88.6119791666667  1.0913140311804 87.5546875  C -0.25463994060876 85.2578125  -0.29101707498144 82.9609375  0.982182628062361 80.6640625  L 42.8886414253898 3.6640625  C 43.5070527097253 2.53385416666666  44.3619153674833 1.640625  45.4532293986637 0.984375000000002  C 46.5445434298441 0.328125000000004  47.7268002969562 0  49 0  C 50.2731997030438 0  51.4554565701559 0.328125000000004  52.5467706013363 0.984375000000002  Z " fill-rule="nonzero" fill="#d9001b" stroke="none" transform="matrix(1 0 0 1 82 57 )" />
  </g>
</svg>