<?xml version="1.0" encoding="utf-8"?>
<svg version="1.1" xmlns:xlink="http://www.w3.org/1999/xlink" width="7px" height="8px" xmlns="http://www.w3.org/2000/svg">
  <g transform="matrix(1 0 0 1 -903 -299 )">
    <path d="M 906.5 299.5  C 908.18 299.5  909.5 301.04  909.5 303  C 909.5 304.96  908.18 306.5  906.5 306.5  C 904.82 306.5  903.5 304.96  903.5 303  C 903.5 301.04  904.82 299.5  906.5 299.5  Z " fill-rule="nonzero" fill="#000000" stroke="none" fill-opacity="0.996078431372549" />
    <path d="M 906.5 299.5  C 908.18 299.5  909.5 301.04  909.5 303  C 909.5 304.96  908.18 306.5  906.5 306.5  C 904.82 306.5  903.5 304.96  903.5 303  C 903.5 301.04  904.82 299.5  906.5 299.5  Z " stroke-width="1" stroke="#000000" fill="none" stroke-opacity="0.792156862745098" />
  </g>
</svg>