<?xml version="1.0" encoding="utf-8"?>
<svg version="1.1" xmlns:xlink="http://www.w3.org/1999/xlink" width="25px" height="20px" xmlns="http://www.w3.org/2000/svg">
  <g transform="matrix(1 0 0 1 -953 -360 )">
    <path d="M 20.60546875 10.5729166666667  C 20.80078125 10.4166666666667  20.8984375 10.2213541666667  20.8984375 9.98697916666667  C 20.8984375 9.75260416666667  20.80078125 9.55729166666667  20.60546875 9.40104166666667  L 14.7135416666667 4.6875  L 13.232421875 3.50260416666667  C 13.037109375 3.34635416666667  12.79296875 3.26822916666667  12.5 3.26822916666667  C 12.20703125 3.26822916666667  11.962890625 3.34635416666667  11.767578125 3.50260416666667  L 10.2864583333333 4.6875  L 4.39453125 9.40104166666667  C 4.19921875 9.55729166666667  4.1015625 9.75260416666667  4.1015625 9.98697916666667  C 4.1015625 10.2213541666667  4.19921875 10.4166666666667  4.39453125 10.5729166666667  L 5.87565104166667 11.7578125  C 6.07096354166667 11.9140625  6.31510416666667 11.9921875  6.60807291666667 11.9921875  C 6.90104166666667 11.9921875  7.14518229166667 11.9140625  7.34049479166667 11.7578125  L 10.4166666666667 9.296875  L 10.4166666666667 15.8333333333333  C 10.4166666666667 16.0590277777778  10.5197482638889 16.2543402777778  10.7259114583333 16.4192708333333  C 10.9320746527778 16.5842013888889  11.1762152777778 16.6666666666667  11.4583333333333 16.6666666666667  L 13.5416666666667 16.6666666666667  C 13.8237847222222 16.6666666666667  14.0679253472222 16.5842013888889  14.2740885416667 16.4192708333333  C 14.4802517361111 16.2543402777778  14.5833333333333 16.0590277777778  14.5833333333333 15.8333333333333  L 14.5833333333333 9.296875  L 17.6595052083333 11.7578125  C 17.8656684027778 11.9227430555556  18.1098090277778 12.0052083333333  18.3919270833333 12.0052083333333  C 18.6740451388889 12.0052083333333  18.9181857638889 11.9227430555556  19.1243489583333 11.7578125  L 20.60546875 10.5729166666667  Z M 23.3235677083333 4.98046875  C 24.4411892361111 6.51258680555555  25 8.18576388888889  25 10  C 25 11.8142361111111  24.4411892361111 13.4874131944444  23.3235677083333 15.01953125  C 22.2059461805556 16.5516493055556  20.6895616319444 17.7647569444444  18.7744140625 18.6588541666667  C 16.8592664930556 19.5529513888889  14.7677951388889 20  12.5 20  C 10.2322048611111 20  8.14073350694444 19.5529513888889  6.2255859375 18.6588541666667  C 4.31043836805556 17.7647569444444  2.79405381944444 16.5516493055556  1.67643229166667 15.01953125  C 0.558810763888889 13.4874131944444  0 11.8142361111111  0 10  C 0 8.18576388888889  0.558810763888889 6.51258680555555  1.67643229166667 4.98046875  C 2.79405381944444 3.44835069444444  4.31043836805556 2.23524305555555  6.2255859375 1.34114583333333  C 8.14073350694444 0.447048611111109  10.2322048611111 0  12.5 0  C 14.7677951388889 0  16.8592664930556 0.447048611111109  18.7744140625 1.34114583333333  C 20.6895616319444 2.23524305555555  22.2059461805556 3.44835069444444  23.3235677083333 4.98046875  Z " fill-rule="nonzero" fill="#d9001b" stroke="none" fill-opacity="0.768627450980392" transform="matrix(1 0 0 1 953 360 )" />
  </g>
</svg>