<?xml version="1.0" encoding="utf-8"?>
<svg version="1.1" xmlns:xlink="http://www.w3.org/1999/xlink" width="167px" height="44px" viewBox="218 125  167 44" xmlns="http://www.w3.org/2000/svg">
  <defs>
    <filter x="218px" y="125px" width="167px" height="44px" filterUnits="userSpaceOnUse" id="filter35">
      <feOffset dx="5" dy="5" in="SourceAlpha" result="shadowOffsetInner" />
      <feGaussianBlur stdDeviation="2.5" in="shadowOffsetInner" result="shadowGaussian" />
      <feComposite in2="shadowGaussian" operator="atop" in="SourceAlpha" result="shadowComposite" />
      <feColorMatrix type="matrix" values="0 0 0 0 0  0 0 0 0 0  0 0 0 0 0  0 0 0 0.349019607843137 0  " in="shadowComposite" />
    </filter>
    <g id="widget36">
      <path d="M 218.5 126  A 0.5 0.5 0 0 1 219 125.5 L 374 125.5  A 0.5 0.5 0 0 1 374.5 126 L 374.5 158  A 0.5 0.5 0 0 1 374 158.5 L 219 158.5  A 0.5 0.5 0 0 1 218.5 158 L 218.5 126  Z " fill-rule="nonzero" fill="#ffffff" stroke="none" />
      <path d="M 218.5 126  A 0.5 0.5 0 0 1 219 125.5 L 374 125.5  A 0.5 0.5 0 0 1 374.5 126 L 374.5 158  A 0.5 0.5 0 0 1 374 158.5 L 219 158.5  A 0.5 0.5 0 0 1 218.5 158 L 218.5 126  Z " stroke-width="1" stroke="#333333" fill="none" />
    </g>
  </defs>
  <use xlink:href="#widget36" filter="url(#filter35)" />
  <use xlink:href="#widget36" />
</svg>