<?xml version="1.0" encoding="utf-8"?>
<svg version="1.1" xmlns:xlink="http://www.w3.org/1999/xlink" width="29px" height="24px" xmlns="http://www.w3.org/2000/svg">
  <g transform="matrix(1 0 0 1 -796 -121 )">
    <path d="M 20.2611607142857 21.1138392857143  C 22.0412946428571 20.3325892857143  23.503162202381 19.2723214285714  24.6467633928571 17.9330357142857  C 24.409412202381 16.5491071428571  23.9374069940476 15.3995535714286  23.2307477678571 14.484375  C 22.5240885416667 13.5691964285714  21.5288318452381 13.0401785714286  20.2449776785714 12.8973214285714  C 19.5221354166667 13.5580357142857  18.6617373511905 14.0736607142857  17.6637834821429 14.4441964285714  C 16.6658296130952 14.8147321428571  15.6112351190476 15  14.5 15  C 13.3887648809524 15  12.3341703869048 14.8147321428571  11.3362165178571 14.4441964285714  C 10.3382626488095 14.0736607142857  9.47786458333333 13.5580357142857  8.75502232142857 12.8973214285714  C 7.4711681547619 13.0401785714286  6.47591145833333 13.5691964285714  5.76925223214286 14.484375  C 5.06259300595238 15.3995535714286  4.59058779761905 16.5491071428571  4.35323660714286 17.9330357142857  C 5.49683779761905 19.2723214285714  6.95870535714286 20.3325892857143  8.73883928571428 21.1138392857143  C 10.5189732142857 21.8950892857143  12.4393601190476 22.2857142857143  14.5 22.2857142857143  C 16.5606398809524 22.2857142857143  18.4810267857143 21.8950892857143  20.2611607142857 21.1138392857143  Z M 18.8936941964286 12.2075892857143  C 20.107421875 11.203125  20.7142857142857 9.99107142857143  20.7142857142857 8.57142857142857  C 20.7142857142857 7.15178571428571  20.107421875 5.93973214285714  18.8936941964286 4.93526785714286  C 17.6799665178571 3.93080357142857  16.2154017857143 3.42857142857143  14.5 3.42857142857143  C 12.7845982142857 3.42857142857143  11.3200334821429 3.93080357142857  10.1063058035714 4.93526785714286  C 8.892578125 5.93973214285714  8.28571428571428 7.15178571428571  8.28571428571428 8.57142857142857  C 8.28571428571428 9.99107142857143  8.892578125 11.203125  10.1063058035714 12.2075892857143  C 11.3200334821429 13.2120535714286  12.7845982142857 13.7142857142857  14.5 13.7142857142857  C 16.2154017857143 13.7142857142857  17.6799665178571 13.2120535714286  18.8936941964286 12.2075892857143  Z M 27.8510044642857 7.33928571428571  C 28.6170014880952 8.82142857142857  29 10.375  29 12  C 29 13.625  28.6170014880952 15.1763392857143  27.8510044642857 16.6540178571429  C 27.0850074404762 18.1316964285714  26.0573846726191 19.4084821428571  24.7681361607143 20.484375  C 23.4788876488095 21.5602678571429  21.9388020833333 22.4151785714286  20.1478794642857 23.0491071428571  C 18.3569568452381 23.6830357142857  16.4743303571429 24  14.5 24  C 12.5364583333333 24  10.6592261904762 23.6830357142857  8.86830357142857 23.0491071428571  C 7.07738095238095 22.4151785714286  5.53459821428571 21.5625  4.23995535714286 20.4910714285714  C 2.9453125 19.4196428571429  1.91499255952381 18.1428571428571  1.14899553571429 16.6607142857143  C 0.382998511904762 15.1785714285714  0 13.625  0 12  C 0 10.375  0.382998511904762 8.82142857142857  1.14899553571429 7.33928571428571  C 1.91499255952381 5.85714285714286  2.9453125 4.58035714285714  4.23995535714286 3.50892857142857  C 5.53459821428571 2.4375  7.07738095238095 1.58482142857143  8.86830357142857 0.950892857142857  C 10.6592261904762 0.316964285714286  12.5364583333333 0  14.5 0  C 16.4635416666667 0  18.3407738095238 0.316964285714286  20.1316964285714 0.950892857142857  C 21.9226190476191 1.58482142857143  23.4654017857143 2.4375  24.7600446428571 3.50892857142857  C 26.0546875 4.58035714285714  27.0850074404762 5.85714285714286  27.8510044642857 7.33928571428571  Z " fill-rule="nonzero" fill="#000000" stroke="none" transform="matrix(1 0 0 1 796 121 )" />
  </g>
</svg>