<?xml version="1.0" encoding="utf-8"?>
<svg version="1.1" xmlns:xlink="http://www.w3.org/1999/xlink" width="16px" height="29px" xmlns="http://www.w3.org/2000/svg">
  <g transform="matrix(1 0 0 1 -947 -85 )">
    <path d="M 15.3142857142857 21.4814814814815  C 15.6051948051948 21.4814814814815  15.8060606060606 21.5877700617284  15.9168831168831 21.8003472222222  C 16.0277056277056 22.0129243827161  15.9930735930736 22.2087191358025  15.812987012987 22.3877314814815  L 8.54025974025974 28.8321759259259  C 8.4017316017316 28.9440586419753  8.24242424242424 29  8.06233766233766 29  C 7.86839826839827 29  7.7021645021645 28.9440586419753  7.56363636363636 28.8321759259259  L 0.187012987012987 22.3877314814815  C 0.00692640692640691 22.2087191358025  -0.0277056277056277 22.0129243827161  0.0831168831168831 21.8003472222222  C 0.207792207792208 21.5877700617284  0.408658008658009 21.4814814814815  0.685714285714286 21.4814814814815  L 5.34025974025974 21.4814814814815  L 5.34025974025974 0.537037037037036  C 5.34025974025974 0.380401234567898  5.4025974025974 0.251736111111112  5.52727272727273 0.151041666666668  C 5.65194805194805 0.0503472222222237  5.81125541125541 0  6.00519480519481 0  L 9.9948051948052 0  C 10.1887445887446 0  10.3480519480519 0.0503472222222237  10.4727272727273 0.151041666666668  C 10.5974025974026 0.251736111111112  10.6597402597403 0.380401234567898  10.6597402597403 0.537037037037036  L 10.6597402597403 21.4814814814815  L 15.3142857142857 21.4814814814815  Z " fill-rule="nonzero" fill="#000000" stroke="none" transform="matrix(1 0 0 1 947 85 )" />
  </g>
</svg>