<?xml version="1.0" encoding="utf-8"?>
<svg version="1.1" xmlns:xlink="http://www.w3.org/1999/xlink" width="15px" height="14px" xmlns="http://www.w3.org/2000/svg">
  <g transform="matrix(1 0 0 1 -528 -57 )">
    <path d="M 11.162109375 6.79036458333333  C 11.220703125 6.84505208333333  11.25 6.91493055555555  11.25 7  C 11.25 7.08506944444444  11.220703125 7.15494791666667  11.162109375 7.20963541666667  L 8.037109375 10.1263020833333  C 7.978515625 10.1809895833333  7.90364583333333 10.2083333333333  7.8125 10.2083333333333  C 7.72786458333333 10.2083333333333  7.65462239583333 10.1794704861111  7.5927734375 10.1217447916667  C 7.53092447916667 10.0640190972222  7.5 9.99565972222222  7.5 9.91666666666667  L 7.5 8.16666666666667  L 4.0625 8.16666666666667  C 3.97786458333333 8.16666666666667  3.90462239583333 8.13780381944444  3.8427734375 8.080078125  C 3.78092447916667 8.02235243055556  3.75 7.95399305555556  3.75 7.875  L 3.75 6.125  C 3.75 6.04600694444444  3.78092447916667 5.97764756944444  3.8427734375 5.919921875  C 3.90462239583333 5.86219618055556  3.97786458333333 5.83333333333333  4.0625 5.83333333333333  L 7.5 5.83333333333333  L 7.5 4.08333333333333  C 7.5 3.99826388888889  7.529296875 3.92838541666667  7.587890625 3.87369791666667  C 7.646484375 3.81901041666667  7.72135416666667 3.79166666666667  7.8125 3.79166666666667  C 7.890625 3.79166666666667  7.96875 3.82204861111111  8.046875 3.8828125  L 11.162109375 6.79036458333333  Z M 12.099609375 9.48828125  C 12.5748697916667 8.72873263888889  12.8125 7.89930555555556  12.8125 7  C 12.8125 6.10069444444444  12.5748697916667 5.27126736111111  12.099609375 4.51171875  C 11.6243489583333 3.75217013888889  10.9798177083333 3.15060763888889  10.166015625 2.70703125  C 9.35221354166667 2.26345486111111  8.46354166666667 2.04166666666667  7.5 2.04166666666667  C 6.53645833333333 2.04166666666667  5.64778645833333 2.26345486111111  4.833984375 2.70703125  C 4.02018229166667 3.15060763888889  3.37565104166667 3.75217013888889  2.900390625 4.51171875  C 2.42513020833333 5.27126736111111  2.1875 6.10069444444444  2.1875 7  C 2.1875 7.89930555555556  2.42513020833333 8.72873263888889  2.900390625 9.48828125  C 3.37565104166667 10.2478298611111  4.02018229166667 10.8493923611111  4.833984375 11.29296875  C 5.64778645833333 11.7365451388889  6.53645833333333 11.9583333333333  7.5 11.9583333333333  C 8.46354166666667 11.9583333333333  9.35221354166667 11.7365451388889  10.166015625 11.29296875  C 10.9798177083333 10.8493923611111  11.6243489583333 10.2478298611111  12.099609375 9.48828125  Z M 13.994140625 3.486328125  C 14.6647135416667 4.55881076388889  15 5.73003472222222  15 7  C 15 8.26996527777778  14.6647135416667 9.44118923611111  13.994140625 10.513671875  C 13.3235677083333 11.5861545138889  12.4137369791667 12.4353298611111  11.2646484375 13.0611979166667  C 10.1155598958333 13.6870659722222  8.86067708333333 14  7.5 14  C 6.13932291666667 14  4.88444010416667 13.6870659722222  3.7353515625 13.0611979166667  C 2.58626302083333 12.4353298611111  1.67643229166667 11.5861545138889  1.005859375 10.513671875  C 0.335286458333333 9.44118923611111  0 8.26996527777778  0 7  C 0 5.73003472222222  0.335286458333333 4.55881076388889  1.005859375 3.486328125  C 1.67643229166667 2.41384548611111  2.58626302083333 1.56467013888889  3.7353515625 0.938802083333333  C 4.88444010416667 0.312934027777777  6.13932291666667 0  7.5 0  C 8.86067708333333 0  10.1155598958333 0.312934027777777  11.2646484375 0.938802083333333  C 12.4137369791667 1.56467013888889  13.3235677083333 2.41384548611111  13.994140625 3.486328125  Z " fill-rule="nonzero" fill="#000000" stroke="none" transform="matrix(1 0 0 1 528 57 )" />
  </g>
</svg>