<?xml version="1.0" encoding="utf-8"?>
<svg version="1.1" xmlns:xlink="http://www.w3.org/1999/xlink" width="29px" height="32px" xmlns="http://www.w3.org/2000/svg">
  <g transform="matrix(1 0 0 1 -733 -494 )">
    <path d="M 21.9346064814815 21.0208333333333  C 23.2771990740741 21.0208333333333  24.9162808641975 20.3819444444444  26.8518518518519 19.1041666666667  L 26.8518518518519 6.27083333333333  C 24.9610339506173 7.53472222222222  23.2492283950617 8.16666666666667  21.7164351851852 8.16666666666667  C 20.7989969135803 8.16666666666667  19.9878472222222 7.94444444444444  19.2829861111111 7.5  C 18.1641589506173 6.81944444444444  17.134837962963 6.28819444444444  16.1950231481481 5.90625  C 15.2552083333333 5.52430555555555  14.2594521604938 5.33333333333333  13.2077546296296 5.33333333333333  C 11.2721836419753 5.33333333333333  9.01774691358025 6.21527777777778  7 7.97916666666667  L 7 20.4583333333333  C 9.18557098765432 18.8888888888889  11.6078317901235 18.1041666666667  13.7112268518519 18.1041666666667  C 14.3265817901235 18.1041666666667  14.905574845679 18.15625  15.4482060185185 18.2604166666667  C 15.990837191358 18.3645833333333  16.5390625 18.5451388888889  17.0928819444444 18.8020833333333  C 17.6467013888889 19.0590277777778  18.077449845679 19.2743055555556  18.3851273148148 19.4479166666667  C 18.6928047839506 19.6215277777778  19.1543209876543 19.8958333333333  19.7696759259259 20.2708333333333  L 20.2395833333333 20.5625  C 20.7318672839506 20.8680555555556  21.296875 21.0208333333333  21.9346064814815 21.0208333333333  Z M 3.66695601851852 0.78125  C 4.0865162037037 1.30208333333333  4.2962962962963 1.93055555555555  4.2962962962963 2.66666666666667  C 4.2962962962963 3.15277777777778  4.19839891975309 3.59722222222222  4.00260416666667 4  C 3.80680941358025 4.40277777777778  3.54668209876543 4.72222222222222  3.22222222222222 4.95833333333333  L 3.22222222222222 31.3333333333333  C 3.22222222222222 31.5277777777778  3.171875 31.6875  3.07118055555556 31.8125  C 2.97048611111111 31.9375  2.84182098765432 32  2.68518518518519 32  L 1.61111111111111 32  C 1.45447530864198 32  1.32581018518519 31.9375  1.22511574074074 31.8125  C 1.1244212962963 31.6875  1.07407407407407 31.5277777777778  1 31.3333333333333  L 1 4.95833333333333  C 0.749614197530865 4.72222222222222  0.48948688271605 4.40277777777778  0.29369212962963 4  C 0.09789737654321 3.59722222222222  0 3.15277777777778  0 2.66666666666667  C 0 1.93055555555555  0.209780092592593 1.30208333333333  0.629340277777778 0.78125  C 1.04890046296296 0.260416666666668  1.55516975308642 0  2.14814814814815 0  C 2.74112654320988 0  3.24739583333333 0.260416666666668  3.66695601851852 0.78125  Z M 28.4797453703704 2.85416666666667  C 28.8265817901235 3.13194444444444  29 3.51388888888889  29 4  L 29 19.8958333333333  C 29 20.4375  28.8042052469136 20.8333333333333  28.4126157407407 21.0833333333333  C 28.3007330246914 21.1527777777778  28.2056327160494 21.2152777777778  28.1273148148148 21.2708333333333  C 25.6882716049383 22.8819444444444  23.6240354938272 23.6875  21.9346064814815 23.6875  C 20.9500385802469 23.6875  20.0661651234568 23.4444444444444  19.2829861111111 22.9583333333333  L 18.8130787037037 22.6666666666667  C 18.0970293209877 22.2083333333333  17.5432098765432 21.875  17.1516203703704 21.6666666666667  C 16.7600308641975 21.4583333333333  16.2509645061728 21.2569444444444  15.6244212962963 21.0625  C 14.9978780864198 20.8680555555556  14.3601466049383 20.7708333333333  13.7112268518519 20.7708333333333  C 12.5700231481481 20.7708333333333  11.2526041666667 21.0763888888889  9.75896990740741 21.6875  C 8.26533564814815 22.2986111111111  6.98707561728395 23.0069444444444  5.92418981481481 23.8125  C 5.75636574074074 23.9375  5.57175925925926 24  5.37037037037037 24  C 5.19135802469136 24  5.01234567901235 23.9444444444444  4.83333333333333 23.8333333333333  C 4.47530864197531 23.5694444444444  4.2962962962963 23.1805555555556  4.2962962962963 22.6666666666667  L 4.2962962962963 7.20833333333333  C 4.2962962962963 6.72222222222222  4.46971450617284 6.34027777777778  4.81655092592593 6.0625  C 5.20814043209877 5.77083333333333  5.64728009259259 5.47569444444444  6.13396990740741 5.17708333333333  C 6.62065972222222 4.87847222222222  7.2583912037037 4.51736111111111  8.04716435185185 4.09375  C 8.8359375 3.67013888888889  9.68904320987654 3.32638888888889  10.6064814814815 3.0625  C 11.5239197530864 2.79861111111111  12.3910108024691 2.66666666666667  13.2077546296296 2.66666666666667  C 14.4608410493827 2.66666666666667  15.6300154320988 2.88194444444444  16.7152777777778 3.3125  C 17.8005401234568 3.74305555555555  18.9697145061728 4.34027777777778  20.2228009259259 5.10416666666667  C 20.6479552469136 5.36805555555555  21.1458333333333 5.5  21.7164351851852 5.5  C 23.0814043209877 5.5  24.8155864197531 4.72222222222222  26.9189814814815 3.16666666666667  C 27.1651234567901 3  27.3385416666667 2.88194444444444  27.4392361111111 2.8125  C 27.7860725308642 2.59027777777778  28.1329089506173 2.60416666666667  28.4797453703704 2.85416666666667  Z " fill-rule="nonzero" fill="#000000" stroke="none" transform="matrix(1 0 0 1 733 494 )" />
  </g>
</svg>