<?xml version="1.0" encoding="utf-8"?>
<svg version="1.1" xmlns:xlink="http://www.w3.org/1999/xlink" width="13px" height="12px" xmlns="http://www.w3.org/2000/svg">
  <g transform="matrix(1 0 0 1 -775 -110 )">
    <path d="M 12.9723011363636 9.29829545454546  C 12.9907670454545 9.33806818181818  13 9.39772727272727  13 9.47727272727273  C 13 9.63068181818182  12.9692234848485 9.83096590909091  12.9076704545455 10.078125  C 12.8461174242424 10.3252840909091  12.7814867424242 10.5198863636364  12.7137784090909 10.6619318181818  C 12.5845170454545 10.9460227272727  12.2090435606061 11.2471590909091  11.5873579545455 11.5653409090909  C 11.008759469697 11.8551136363636  10.4363162878788 12  9.87002840909091 12  C 9.70383522727273 12  9.5407196969697 11.9900568181818  9.38068181818182 11.9701704545455  C 9.22064393939394 11.9502840909091  9.04367897727273 11.9147727272727  8.84978693181818 11.8636363636364  C 8.65589488636364 11.8125  8.51124526515152 11.7713068181818  8.41583806818182 11.7400568181818  C 8.32043087121212 11.7088068181818  8.14962121212121 11.6505681818182  7.90340909090909 11.5653409090909  C 7.65719696969697 11.4801136363636  7.50639204545455 11.4289772727273  7.45099431818182 11.4119318181818  C 6.84777462121212 11.2130681818182  6.30918560606061 10.9772727272727  5.83522727272727 10.7045454545455  C 5.05350378787879 10.2556818181818  4.24100378787879 9.64204545454545  3.39772727272727 8.86363636363636  C 2.55445075757576 8.08522727272727  1.88967803030303 7.33522727272727  1.40340909090909 6.61363636363636  C 1.10795454545455 6.17613636363636  0.85250946969697 5.67897727272727  0.637073863636364 5.12215909090909  C 0.618607954545455 5.07102272727273  0.563210227272727 4.93181818181818  0.470880681818182 4.70454545454546  C 0.378551136363636 4.47727272727273  0.31545928030303 4.31960227272727  0.281605113636364 4.23153409090909  C 0.247750946969697 4.14346590909091  0.203125 4.00994318181818  0.147727272727273 3.83096590909091  C 0.0923295454545455 3.65198863636363  0.0538589015151515 3.48863636363636  0.0323153409090909 3.34090909090909  C 0.0107717803030303 3.19318181818182  0 3.04261363636364  0 2.88920454545455  C 0 2.36647727272727  0.156960227272727 1.83806818181818  0.470880681818182 1.30397727272727  C 0.815577651515152 0.730113636363634  1.14180871212121 0.383522727272728  1.44957386363636 0.264204545454545  C 1.60345643939394 0.201704545454545  1.81427556818182 0.142045454545453  2.08203125 0.0852272727272725  C 2.34978693181818 0.0284090909090904  2.56676136363636 0  2.73295454545455 0  C 2.81912878787879 0  2.88375946969697 0.00852272727272752  2.92684659090909 0.0255681818181812  C 3.03764204545455 0.0596590909090913  3.20075757575758 0.275568181818182  3.41619318181818 0.673295454545455  C 3.48390151515152 0.781249999999998  3.57623106060606 0.93465909090909  3.69318181818182 1.13352272727273  C 3.81013257575758 1.33238636363636  3.91785037878788 1.51278409090909  4.01633522727273 1.67471590909091  C 4.11482007575758 1.83664772727273  4.21022727272727 1.98863636363636  4.30255681818182 2.13068181818182  C 4.32102272727273 2.15340909090909  4.37488162878788 2.22443181818182  4.46413352272727 2.34375  C 4.55338541666667 2.46306818181818  4.61955492424242 2.56392045454545  4.66264204545455 2.64630681818182  C 4.70572916666667 2.72869318181818  4.72727272727273 2.80965909090909  4.72727272727273 2.88920454545455  C 4.72727272727273 3.00284090909091  4.63955965909091 3.14488636363636  4.46413352272727 3.31534090909091  C 4.28870738636364 3.48579545454546  4.09789299242424 3.64204545454545  3.89169034090909 3.78409090909091  C 3.68548768939394 3.92613636363636  3.49467329545455 4.07670454545455  3.31924715909091 4.23579545454546  C 3.14382102272727 4.39488636363636  3.05610795454545 4.52556818181818  3.05610795454545 4.62784090909091  C 3.05610795454545 4.67897727272727  3.07149621212121 4.74289772727273  3.10227272727273 4.81960227272727  C 3.13304924242424 4.89630681818182  3.15920928030303 4.95454545454545  3.18075284090909 4.99431818181818  C 3.20229640151515 5.03409090909091  3.24538352272727 5.10227272727273  3.31001420454546 5.19886363636364  C 3.37464488636364 5.29545454545455  3.41003787878788 5.34943181818182  3.41619318181818 5.36079545454546  C 3.88399621212121 6.13920454545454  4.41950757575758 6.80681818181818  5.02272727272727 7.36363636363636  C 5.62594696969697 7.92045454545454  6.34919507575758 8.41477272727273  7.19247159090909 8.84659090909091  C 7.2047821969697 8.85227272727273  7.26325757575758 8.88494318181818  7.36789772727273 8.94460227272727  C 7.47253787878788 9.00426136363636  7.54640151515152 9.04403409090909  7.58948863636364 9.06392045454546  C 7.63257575757576 9.08380681818182  7.69566761363636 9.10795454545455  7.77876420454546 9.13636363636364  C 7.86186079545455 9.16477272727273  7.93110795454546 9.17897727272727  7.98650568181818 9.17897727272727  C 8.09730113636364 9.17897727272727  8.23887310606061 9.09801136363636  8.41122159090909 8.93607954545455  C 8.58357007575758 8.77414772727273  8.74668560606061 8.59801136363636  8.90056818181818 8.40767045454546  C 9.05445075757576 8.21732954545454  9.22372159090909 8.04119318181818  9.40838068181818 7.87926136363636  C 9.59303977272727 7.71732954545455  9.74692234848485 7.63636363636364  9.87002840909091 7.63636363636364  C 9.95620265151515 7.63636363636364  10.043915719697 7.65625  10.1331676136364 7.69602272727273  C 10.2224195075758 7.73579545454545  10.3316761363636 7.796875  10.4609375 7.87926136363636  C 10.5901988636364 7.96164772727273  10.6671401515152 8.01136363636364  10.6917613636364 8.02840909090909  C 10.8456439393939 8.11363636363636  11.0102982954545 8.20170454545454  11.1857244318182 8.29261363636364  C 11.3611505681818 8.38352272727273  11.5565814393939 8.48295454545454  11.7720170454545 8.59090909090909  C 11.9874526515152 8.69886363636364  12.1536458333333 8.78409090909091  12.2705965909091 8.84659090909091  C 12.7014678030303 9.04545454545454  12.9353693181818 9.19602272727273  12.9723011363636 9.29829545454546  Z " fill-rule="nonzero" fill="#000000" stroke="none" transform="matrix(1 0 0 1 775 110 )" />
  </g>
</svg>