<?xml version="1.0" encoding="utf-8"?>
<svg version="1.1" xmlns:xlink="http://www.w3.org/1999/xlink" width="13px" height="11px" xmlns="http://www.w3.org/2000/svg">
  <g transform="matrix(1 0 0 1 -554 -173 )">
    <path d="M 12.986160397445 0.41796875  C 13.0076886680861 0.524739583333332  12.9876981310622 0.627604166666666  12.9261887863733 0.7265625  L 7.02129169623847 10.7265625  C 6.91672581026733 10.9088541666667  6.74142417790395 11  6.49538679914833 11  C 6.46463212680388 11  6.4185001182872 10.9947916666667  6.3569907735983 10.984375  C 6.22167021528271 10.9583333333333  6.1124911284599 10.8997395833333  6.02945351312988 10.80859375  C 5.94641589779986 10.7174479166667  5.90489709013485 10.6145833333333  5.90489709013485 10.5  L 5.90489709013485 6  L 0.590489709013485 6  C 0.455169150697895 6  0.333688194937308 5.96484375  0.226046841731725 5.89453125  C 0.118405488526141 5.82421875  0.0492074757511237 5.73177083333333  0.0184528034066714 5.6171875  C -0.0123018689377809 5.50260416666667  0 5.39322916666667  0.0553584102200142 5.2890625  C 0.110716820440028 5.18489583333333  0.19990537023894 5.10677083333333  0.322924059616749 5.0546875  L 12.1327182398864 0.0546875000000003  C 12.212680387982 0.018229166666666  12.3018689377809 0  12.4002838892832 0  C 12.5663591199432 0  12.7047551454933 0.0494791666666656  12.8154719659333 0.148437500000001  C 12.9077359829666 0.221354166666666  12.9646321268039 0.311197916666666  12.986160397445 0.41796875  Z " fill-rule="nonzero" fill="#000000" stroke="none" transform="matrix(1 0 0 1 554 173 )" />
  </g>
</svg>